<?xml version="1.0" encoding="utf-8"?>
<!-- Generator: Adobe Illustrator 24.1.3, SVG Export Plug-In . SVG Version: 6.00 Build 0)  -->
<svg version="1.1" id="Layer_1" xmlns="http://www.w3.org/2000/svg" xmlns:xlink="http://www.w3.org/1999/xlink" x="0px" y="0px"
	 viewBox="0 0 232.3 130.5" style="enable-background:new 0 0 232.3 130.5;" xml:space="preserve">
<style type="text/css">
	.st0{fill:#AEB0B3;}
	.st1{fill:#1D5BA6;}
</style>
<g transform="translate(-297.691 -51)">
	<g transform="translate(246.673 -104.918)">
		<path class="st0" d="M282.9,229.3c-0.5-0.7-1.3-1-2.2-1c-1-0.1-1.9,0.6-2.2,1.6c-1.3,4.6-3,9-5.1,13.3c-3,6-6.3,10.4-9.8,13.4
			c-1.6,1.5-3.7,2.3-5.9,2.4c-1.6,0-3.1-0.8-4-2.2c-1-1.6-1.7-3.4-2-5.3c-0.4-2-0.5-4-0.5-6c3.5,0,6.9-1.3,9.5-3.7
			c2.7-2.4,4.8-5.4,6.1-8.8c1.4-3.4,2.1-7,2.1-10.6c0-7.3-3.3-11-9.8-11c-3.4,0-6.8,1.1-9.5,3.2c-2.8,2.2-5.2,5.1-6.9,8.2
			c-1.2,2.2-2.2,4.5-3,6.9c0,0,0,0.1-0.1,0.1c0,0.1-0.1,0.2-0.1,0.3c-0.1,0.4-0.3,0.8-0.4,1.2c-2.1,6.6-4.6,13.1-7.5,19.3
			c-3,6.5-5.4,9.8-7.1,9.8c-0.8,0-1.3-1.8-1.3-5.5c0-3.6,0.1-7.7,0.3-12.1c0.2-5.1,0.3-10.2,0.3-15.1c0-2.4-0.2-4.8-0.8-7.1
			c-0.4-1.9-1.4-3.7-2.7-5.1c-1.4-1.3-3.4-2-5.3-1.9c-2.2,0-4.4,0.7-6.2,2c-1.9,1.4-3.6,3.2-4.8,5.3c-1.5,2.3-2.7,4.8-3.6,7.3
			c-0.1-1.9-0.4-3.8-1-5.7c-0.5-1.7-1.3-3.2-2.5-4.4c-1.3-1.2-3-1.8-4.8-1.7c-5.5,0-10.3,5.3-14.5,16c0.3-3.6,0.7-7.1,1.2-10.5
			c0.2-1.5,0.3-2.9,0.3-4.4c0.1-1.1-0.3-2.1-1-2.9c-0.7-0.6-1.6-1-2.6-1.1c-1.1-0.2-2.1-0.2-3.2-0.2c-1.2,0-2.3,0.1-3.4,0.3
			c-1,0.2-1.9,0.7-2.5,1.4c-0.7,0.9-1.1,2.1-1.2,3.2c-0.3,2.7-0.4,6.6-0.5,11.7l-0.7,2.2c-1.2,4-3.3,7.6-6.3,10.6
			c-0.9,0.9-1.9,1.7-2.8,2.5c-1.1-2.7-2.3-5.3-3.6-7.8c-1.4-2.7-2.6-5.4-3.6-8c-1-2.4-1.5-5-1.5-7.6c0-2.8,1.7-4.3,5-4.6
			c2.6-0.2,3.9-1.2,3.9-2.8c0-0.7-0.3-1.3-0.9-1.6c-0.7-0.4-1.4-0.6-2.2-0.7c-4.5-0.7-9,0.6-12.3,3.7c-2.9,2.6-4.3,6.5-4.3,11.7
			c0,2.3,0.4,4.5,1.1,6.6c0.8,2.3,1.8,4.5,2.9,6.6c1.2,2.2,2.4,4.4,3.6,6.5c0.9,1.5,1.8,3.1,2.6,4.7l-1.8,1.4
			c-3.6,2.9-5.4,6.3-5.4,10.3c-0.1,2.4,0.8,4.6,2.5,6.3c1.6,1.6,3.8,2.6,6.1,2.5c3.1,0.2,6.1-1.1,8.1-3.4c2-2.4,3-5.4,2.9-8.5
			c0-3.3-0.5-6.7-1.4-9.9c1.5-1.3,3-2.6,4.5-4.2c1.3-1.4,2.5-2.9,3.6-4.5c0.2,9.4,0.9,16.2,2.1,20.4c0.6,2.4,2.3,3.6,5,3.6
			c1.2,0,2.3-0.4,3.2-1.1c0.9-0.8,1.3-2.4,1.3-4.8c0.1-2.5,0.4-5.1,0.9-7.6c0.6-3.5,1.5-7.2,2.5-11.1c0.9-3.4,2.1-6.8,3.5-10
			c1.3-2.8,2.6-4.2,4-4.2c0.7,0,1.2,0.8,1.5,2.5c0.4,2,0.5,3.9,0.5,5.9l-0.1,15.7c0,6.8,1.7,10.2,5.2,10.1c1.4,0,2.8-0.8,3.4-2.1
			c0.9-1.6,1.5-3.3,1.9-5c0.4-1.9,0.8-3.8,1-5.5c0.6-3.6,1.3-7.2,2.1-10.8c0.7-3.2,1.7-6.3,2.9-9.3c1.1-2.5,2.3-3.8,3.5-3.8
			c0.7,0,1,1,1.1,3.1l0.1,2.6c0,2.2-0.1,4.3-0.2,6.4c-0.2,2.6-0.2,5.4-0.2,8.3c0,7.6,0.9,13.3,2.7,17.2c1.8,3.9,4.9,5.8,9.3,5.8
			c3.9,0,7.4-2.7,10.7-8.2c1.8-3.1,3.4-6.3,4.7-9.6c0.4,3.5,1.7,6.9,3.7,9.8c2.8,3.8,7.1,5.7,13.1,5.7c6.3,0,12-3.3,17.2-10
			c4.3-5.7,7.6-12.1,9.7-18.9c0.8-2.1,1.4-4.3,1.9-6.5C283.3,230.2,283.1,229.7,282.9,229.3 M253.9,227.7c1.9-6.2,4.3-9.3,7.1-9.3
			c2,0,3,1.7,3,5.1c0,2.5-0.5,5-1.4,7.3c-1,2.6-2.4,5-4.4,7c-1.8,1.9-4.1,3-6.7,3.2C251.7,236.5,252.6,232,253.9,227.7 M147.6,267.7
			c-0.8,0-1.5-0.5-1.8-1.2c-0.5-0.8-0.7-1.7-0.7-2.6c0-2.6,1.2-5,3.2-6.7c1,2.2,1.6,4.7,1.6,7.1C150,266.5,149.2,267.7,147.6,267.7"
			/>
		<path class="st1" d="M159.5,170.7c-0.6-0.6-1.5-1-2.4-1H54.6c-1.8,0-3.3,1.4-3.3,3.2c0,0,0,0,0,0v21.6c0,1.8,1.4,3.3,3.2,3.3
			c0,0,0,0,0,0h34.6c0.9,0,1.8,0.3,2.4,1c0.6,0.6,0.9,1.5,0.9,2.3v68.1c0,1.8,1.4,3.3,3.2,3.3c0,0,0,0,0,0h20.4c0.9,0,1.8-0.3,2.4-1
			c0.6-0.6,0.9-1.5,0.9-2.3v-68.1c0-1.8,1.4-3.3,3.2-3.3c0,0,0,0,0,0h34.4c0.9,0,1.8-0.3,2.4-1c0.6-0.6,0.9-1.5,0.9-2.3V173
			C160.4,172.1,160.1,171.3,159.5,170.7 M66.4,191.5c-4.1,0-7.5-3.3-7.5-7.5c0-4.1,3.3-7.5,7.5-7.5c4.1,0,7.5,3.3,7.5,7.5
			C73.9,188.2,70.5,191.5,66.4,191.5"/>
		<path class="st1" d="M74.9,272.6H54.6c-0.9,0-1.7-0.3-2.4-0.9c-0.6-0.6-0.9-1.4-0.9-2.3v-54.5c0-0.9,0.3-1.7,0.9-2.3
			c0.6-0.6,1.5-1,2.4-0.9h20.3c1.8,0,3.2,1.4,3.2,3.2c0,0,0,0,0,0v54.5c0,0.9-0.3,1.7-0.9,2.3C76.6,272.3,75.8,272.7,74.9,272.6"/>
	</g>
</g>
</svg>
