<svg xmlns="http://www.w3.org/2000/svg" width="189.069" height="146.177" viewBox="0 0 189.069 146.177"><defs><style>.a{fill:#ea9d0b;}.b{fill:#004b97;}.c{fill:#eef4f9;}.d{fill:#242424;}</style></defs><path class="a" d="M505.746,460.79A24.589,24.589,0,1,1,481.157,436.2,24.59,24.59,0,0,1,505.746,460.79Z" transform="translate(-326.689 -434.898)"/><path class="b" d="M484.64,566.6c28.4,0,31.661-21.542,31.661-21.542v-53.2s-2.611,8.486-16.647,7.671C483.819,498.61,483.008,485,483.008,485s-.812,13.607-16.647,14.525c-14.036.815-16.647-7.671-16.647-7.671v53.2s3.265,21.542,31.661,21.542Z" transform="translate(-328.538 -421.732)"/><path class="c" d="M355.312,561.939a17.213,17.213,0,0,0,17.072,17.355h73.568a17.212,17.212,0,0,0,17.073-17.355V455.32a17.215,17.215,0,0,0-17.073-17.357H372.384a17.216,17.216,0,0,0-17.072,17.357Z" transform="translate(-354.007 -434.423)"/><path class="b" d="M355.312,456.042c0,11.888,7.643,18.8,17.072,18.8h73.568c9.431,0,17.073-6.915,17.073-18.8v.726c0-11.889-7.641-18.806-17.073-18.806H372.384c-9.429,0-17.072,6.917-17.072,18.806Z" transform="translate(-354.007 -434.423)"/><path class="d" d="M446.229,580.877h-2.212a1.305,1.305,0,1,1,0-2.611h2.212A15.928,15.928,0,0,0,462,562.216V455.6a15.928,15.928,0,0,0-15.767-16.05H372.662a15.928,15.928,0,0,0-15.767,16.05v106.62a15.928,15.928,0,0,0,15.767,16.05h55.262a1.305,1.305,0,1,1,0,2.611H372.662a18.54,18.54,0,0,1-18.378-18.661V455.6a18.542,18.542,0,0,1,18.378-18.662h73.568A18.542,18.542,0,0,1,464.607,455.6v106.62A18.54,18.54,0,0,1,446.229,580.877Z" transform="translate(-354.284 -434.7)"/><path class="d" d="M446.229,476.429H372.662c-10.5,0-17.983-7.86-18.363-19.181a1.375,1.375,0,0,1-.015-.2v-.727a1.243,1.243,0,0,1,.017-.209c.4-11.335,7.876-19.175,18.361-19.175h73.568c10.5,0,17.983,7.859,18.362,19.185a1.268,1.268,0,0,1,.015.2v.727a1.266,1.266,0,0,1-.016.209C464.194,468.589,456.714,476.429,446.229,476.429Zm-73.568-36.882c-9.294,0-15.63,6.893-15.764,17.155.134,10.223,6.471,17.115,15.764,17.115h73.568c9.293,0,15.628-6.892,15.764-17.151-.136-10.226-6.471-17.119-15.764-17.119Z" transform="translate(-354.284 -434.7)"/><path class="d" d="M446.229,493.152H372.662c-10.821,0-18.378-8.267-18.378-20.109a1.305,1.305,0,1,1,2.611,0c0,10.466,6.338,17.5,15.767,17.5h73.568c9.431,0,15.767-7.032,15.767-17.5a1.305,1.305,0,1,1,2.611,0C464.607,484.884,457.05,493.152,446.229,493.152Z" transform="translate(-354.284 -425.311)"/><path class="d" d="M446.229,513.716H372.662c-10.821,0-18.378-8.268-18.378-20.109a1.305,1.305,0,1,1,2.611,0c0,10.464,6.338,17.5,15.767,17.5h73.568c9.431,0,15.767-7.033,15.767-17.5a1.305,1.305,0,1,1,2.611,0C464.607,505.448,457.05,513.716,446.229,513.716Z" transform="translate(-354.284 -419.763)"/><path class="d" d="M446.229,534.28H372.662c-10.821,0-18.378-8.267-18.378-20.109a1.305,1.305,0,1,1,2.611,0c0,10.465,6.338,17.5,15.767,17.5h73.568c9.431,0,15.767-7.033,15.767-17.5a1.305,1.305,0,1,1,2.611,0C464.607,526.014,457.05,534.28,446.229,534.28Z" transform="translate(-354.284 -414.215)"/><path class="d" d="M426.971,554.844a1.305,1.305,0,0,1,0-2.611c9.431,0,15.767-7.033,15.767-17.5a1.305,1.305,0,0,1,2.611,0C445.349,546.576,437.792,554.844,426.971,554.844Z" transform="translate(-335.026 -408.667)"/><path class="d" d="M427.924,554.844H372.662c-10.821,0-18.378-8.268-18.378-20.11a1.305,1.305,0,0,1,2.611,0c0,10.466,6.338,17.5,15.767,17.5h55.262a1.305,1.305,0,0,1,0,2.611Z" transform="translate(-354.284 -408.667)"/><path class="d" d="M484.917,568.185h-3.265c-29.182,0-32.918-22.425-32.951-22.652l-.015-53.4a1.307,1.307,0,0,1,1.111-1.29,1.328,1.328,0,0,1,1.442.908c.1.3,2.579,7.482,15.324,6.751,14.439-.84,15.385-12.8,15.418-13.3a1.306,1.306,0,0,1,2.607,0c.033.509.979,12.464,15.418,13.3,12.858.751,15.3-6.677,15.324-6.751a1.328,1.328,0,0,1,1.442-.908,1.307,1.307,0,0,1,1.112,1.29v53.2a1.306,1.306,0,0,1-2.612,0V496.456c-2.447,2.486-7.062,5.136-15.417,4.654-10.359-.6-14.735-6.395-16.571-10.781-1.836,4.386-6.213,10.179-16.572,10.781-8.351.489-12.971-2.168-15.415-4.654v48.882c.114.637,3.479,20.237,30.354,20.237h3.265c9.93,0,17.772-2.676,23.311-7.95a1.3,1.3,0,1,1,1.8,1.887C503.989,565.268,495.54,568.185,484.917,568.185Z" transform="translate(-328.815 -422.008)"/><path class="d" d="M475.643,464.507a1.3,1.3,0,0,1-.923-.382l-7.4-7.4a1.305,1.305,0,0,1,1.846-1.846l6.5,6.5,11.915-11.263a1.305,1.305,0,0,1,1.793,1.9l-12.836,12.135A1.305,1.305,0,0,1,475.643,464.507Z" transform="translate(-323.892 -431.24)"/><path class="d" d="M481.435,486.963a25.894,25.894,0,1,1,25.895-25.9A25.922,25.922,0,0,1,481.435,486.963Zm0-49.178a23.283,23.283,0,1,0,23.283,23.282A23.308,23.308,0,0,0,481.435,437.785Z" transform="translate(-326.966 -435.175)"/><path class="d" d="M476.212,541.275a1.306,1.306,0,0,1-1.307-1.307V508.416a1.306,1.306,0,1,1,2.612,0v31.553A1.305,1.305,0,0,1,476.212,541.275Z" transform="translate(-321.742 -415.768)"/></svg>