<svg xmlns="http://www.w3.org/2000/svg" width="666" height="519.74" viewBox="0 0 666 519.74"><defs><style>.a{opacity:0.05;}.b{fill:#1d5ba6;}.c{fill:#fff;}</style></defs><g class="a" transform="translate(-4595.094 764.281)"><rect class="b" width="393.589" height="519.74" transform="translate(4867.505 -764.281)"/><path class="b" d="M639.6,560.329v-30.4a5.5,5.5,0,0,1,5.5-5.5h27.053a5.5,5.5,0,0,1,5.5,5.5v30.4a5.5,5.5,0,0,1-5.5,5.5H645.106a5.5,5.5,0,0,1-5.5-5.5" transform="translate(4116.497 -900.18)"/><path class="b" d="M691.5,485.177v79.956a5.5,5.5,0,0,1-5.5,5.5H660.541a5.487,5.487,0,0,1-5.491-5.494V485.2a5.527,5.527,0,0,1,5.509-5.512h25.452a5.491,5.491,0,0,1,5.491,5.491" transform="translate(4157.142 -1017.908)"/><path class="b" d="M710.5,464.681H630.541a5.5,5.5,0,0,0-5.5,5.5v25.47a5.48,5.48,0,0,0,2.281,4.441c.051.036.091.087.145.12l.069.036a5.45,5.45,0,0,0,3,.9h43.493a5.491,5.491,0,0,1,5.513,5.49V604.63a5.486,5.486,0,0,0,5.49,5.491H710.5a5.486,5.486,0,0,0,5.491-5.491V470.194a5.5,5.5,0,0,0-5.491-5.513" transform="translate(4078.172 -1057.391)"/><path class="b" d="M686.175,435.954H660.719a5.529,5.529,0,0,0-5.269,3.849,6.382,6.382,0,0,0-.218,1.089,2.921,2.921,0,0,0-.036.581v15.288a3.244,3.244,0,0,0,.036.577V571.255a5.508,5.508,0,0,0,5.487,5.487h25.456a5.512,5.512,0,0,0,5.516-5.487V441.474a5.514,5.514,0,0,0-5.516-5.519M673.429,568.935a9.7,9.7,0,1,1,9.7-9.7,9.684,9.684,0,0,1-9.7,9.7" transform="translate(4157.525 -1132.983)"/><path class="c" d="M809.6,515.045H755.149a5.5,5.5,0,0,1-5.5-5.5V484.07a5.5,5.5,0,0,1,5.5-5.5H809.6a5.5,5.5,0,0,1,5.5,5.5v25.474a5.5,5.5,0,0,1-5.5,5.5" transform="translate(4406.061 -1020.839)"/><path class="c" d="M749.833,497.45V468.817a5.5,5.5,0,0,1,5.5-5.5H780.8a5.5,5.5,0,0,1,5.5,5.5V497.45a5.5,5.5,0,0,1-5.5,5.5h-25.47a5.5,5.5,0,0,1-5.5-5.5" transform="translate(4406.551 -1060.975)"/><path class="c" d="M689.936,559.495V529.089a5.5,5.5,0,0,1,5.5-5.5h25.474a5.5,5.5,0,0,1,5.494,5.5v30.406a5.5,5.5,0,0,1-5.494,5.5H695.438a5.5,5.5,0,0,1-5.5-5.5" transform="translate(4248.939 -902.377)"/><path class="c" d="M704.477,595.607V531.484a5.5,5.5,0,0,1,5.5-5.5h25.474a5.5,5.5,0,0,1,5.5,5.5v64.123a5.5,5.5,0,0,1-5.5,5.5H709.975a5.494,5.494,0,0,1-5.5-5.5" transform="translate(4287.202 -896.075)"/><path class="c" d="M749.5,596.73V543.951a5.5,5.5,0,0,1,5.5-5.494h25.471a5.5,5.5,0,0,1,5.5,5.494V596.73a5.5,5.5,0,0,1-5.5,5.5H755a5.5,5.5,0,0,1-5.5-5.5" transform="translate(4405.677 -863.26)"/><path class="b" d="M606.339,495.632V470.158a5.5,5.5,0,0,1,5.5-5.5h38.917a5.5,5.5,0,0,1,5.5,5.5v25.474a5.5,5.5,0,0,1-5.5,5.5H611.837a5.5,5.5,0,0,1-5.5-5.5" transform="translate(4028.965 -1057.447)"/><path class="b" d="M676.516,442.19c0-.036-.011-.073-.011-.1v-.632l-.061.051a5.474,5.474,0,0,0-5.429-4.819h-25.47a5.5,5.5,0,0,0-5.5,5.5v44.691c0,.033.011.062.011.1V514.81a5.5,5.5,0,0,0,5.49,5.509h25.47a5.5,5.5,0,0,0,5.49-5.509V486.979c0-.033.011-.065.011-.1Z" transform="translate(4117.653 -1131.051)"/><path class="b" d="M734.347,479.684H600.753a5.487,5.487,0,0,0-5.487,5.52V615.058a5.482,5.482,0,0,0,5.487,5.487h25.452a5.516,5.516,0,0,0,5.523-5.487V518.721a5.5,5.5,0,0,1,4.644-2.542h97.974a5.51,5.51,0,0,0,5.483-5.523V485.2a5.51,5.51,0,0,0-5.483-5.52M614.294,507.609a9.7,9.7,0,1,1,9.7-9.7,9.694,9.694,0,0,1-9.7,9.7" transform="translate(3999.828 -1017.913)"/><path class="b" d="M645.758,449.684H634.5a5.5,5.5,0,0,0-5.494,5.5v25.47a5.5,5.5,0,0,0,5.494,5.5h11.258a5.5,5.5,0,0,0,5.5-5.5v-25.47a5.5,5.5,0,0,0-5.5-5.5" transform="translate(4088.61 -1096.854)"/><path class="b" d="M770.483,543.469V515.188a5.5,5.5,0,0,0-5.495-5.487H630.533a5.5,5.5,0,0,0-5.494,5.487v79.963a5.5,5.5,0,0,0,5.494,5.494H656a5.5,5.5,0,0,0,5.49-5.494V551.658A5.5,5.5,0,0,1,667,546.153h61.516a5.5,5.5,0,0,1,5.512,5.505v18.371l.094-.007v.047a5.5,5.5,0,0,0,5.5,5.494H765.1a5.493,5.493,0,0,0,5.5-5.494V544.591a5.493,5.493,0,0,0-.112-1.122" transform="translate(4078.172 -938.927)"/><path class="c" d="M765.528,484.083V618.52a5.485,5.485,0,0,1-5.49,5.494h-25.47a5.487,5.487,0,0,1-5.49-5.494V520.542a5.5,5.5,0,0,0-5.5-5.494h-43.5a5.5,5.5,0,0,1-5.5-5.5V484.083a5.5,5.5,0,0,1,5.491-5.512h79.963a5.5,5.5,0,0,1,5.49,5.512" transform="translate(4208.542 -1020.842)"/><path class="c" d="M735.6,439.407H710.129a5.492,5.492,0,0,0-5.5,5.491l.011,58.7a5.488,5.488,0,0,0,5.487,5.512H735.6a5.5,5.5,0,0,0,5.491-5.512l.011-58.7a5.5,5.5,0,0,0-5.5-5.491m-4.771,58.066a5.086,5.086,0,0,1-1.359,1.358c-10.342,6.885-21.458-4.227-14.569-14.551a4.791,4.791,0,0,1,1.358-1.358c10.32-6.9,21.454,4.23,14.569,14.551" transform="translate(4287.607 -1123.896)"/><path class="c" d="M814.533,542.54H716.544a5.5,5.5,0,0,1-5.509-5.491v-7.038a5.5,5.5,0,0,1,5.509-5.494h43.493a5.5,5.5,0,0,0,5.49-5.509v-58.24l-.018-15.847.018-.018v-5.839a5.5,5.5,0,0,0-5.49-5.512h-25.47a5.5,5.5,0,0,0-5.49,5.512v43.493a5.5,5.5,0,0,1-5.509,5.49H680.075a5.5,5.5,0,0,0-5.491,5.513V573.5a5.5,5.5,0,0,0,5.491,5.512H814.533a5.505,5.505,0,0,0,5.491-5.512V548.049a5.5,5.5,0,0,0-5.491-5.509" transform="translate(4208.542 -1139.303)"/><path class="c" d="M790.066,478.572H710.121a5.487,5.487,0,0,0-5.487,5.509V618.521a5.472,5.472,0,0,0,5.487,5.491h25.474a5.489,5.489,0,0,0,5.491-5.491V520.533a5.486,5.486,0,0,1,5.491-5.487h7.041a5.487,5.487,0,0,1,5.509,5.487v43.489a5.476,5.476,0,0,0,5.49,5.5h25.449a5.492,5.492,0,0,0,5.512-5.5V484.081a5.5,5.5,0,0,0-5.512-5.509M785.3,557.9a4.682,4.682,0,0,1-1.34,1.358c-10.338,6.889-21.458-4.231-14.569-14.569a4.984,4.984,0,0,1,1.358-1.358c10.324-6.889,21.458,4.253,14.551,14.569" transform="translate(4287.615 -1020.839)"/><path class="c" d="M793.975,464.121H766.268a5.5,5.5,0,0,1-5.494-5.5V427.234a5.5,5.5,0,0,0-5.5-5.5H729.8a5.5,5.5,0,0,0-5.494,5.5v67.859a5.5,5.5,0,0,0,5.494,5.5h26.553a5.461,5.461,0,0,1,5.432,4.906v44.089a5.5,5.5,0,0,0,5.5,5.5h26.69a5.5,5.5,0,0,0,5.5-5.5v-79.97a5.5,5.5,0,0,0-5.5-5.5" transform="translate(4339.374 -1170.406)"/><path class="c" d="M805.075,503.051H761.582a5.5,5.5,0,0,1-5.491-5.491V482.886c0-.065.022-.127.022-.2v-28.63a5.5,5.5,0,0,0-5.5-5.5H725.138a5.5,5.5,0,0,0-5.5,5.5v79.952a5.491,5.491,0,0,0,5.491,5.512h79.944a5.51,5.51,0,0,0,5.513-5.512V508.56a5.509,5.509,0,0,0-5.513-5.509" transform="translate(4327.102 -1099.814)"/><path class="c" d="M859.571,508.584a5.5,5.5,0,0,1,5.508,5.491v25.474a5.487,5.487,0,0,1-5.508,5.49H761.582a5.5,5.5,0,0,0-5.491,5.509v43.5a5.5,5.5,0,0,1-5.509,5.487H725.131a5.483,5.483,0,0,1-5.491-5.487v-79.97a5.486,5.486,0,0,1,5.491-5.491Z" transform="translate(4327.102 -941.866)"/><path class="c" d="M904.6,523.591H779.623a5.5,5.5,0,0,0-5.509,5.491v43.5a5.485,5.485,0,0,1-5.491,5.505H725.131a5.486,5.486,0,0,0-5.491,5.49v25.474a5.483,5.483,0,0,0,5.491,5.487h79.944a5.5,5.5,0,0,0,5.513-5.487v-43.5a5.5,5.5,0,0,1,5.487-5.509h35.551c.065,0,.123.018.192.018H904.6a5.5,5.5,0,0,0,5.5-5.494V529.089a5.5,5.5,0,0,0-5.5-5.5" transform="translate(4327.102 -902.377)"/><path class="c" d="M874.6,533.068h-98a5.5,5.5,0,0,1-5.487-5.494V484.081a5.506,5.506,0,0,0-5.513-5.509H740.15a5.5,5.5,0,0,0-5.509,5.509v79.945a5.491,5.491,0,0,0,5.509,5.494h97.989a5.5,5.5,0,0,1,5.49,5.505v43.5a5.471,5.471,0,0,0,3.334,5.044l.025.011a3.979,3.979,0,0,0,.45.138,5.308,5.308,0,0,0,.589.185l.076.007a5.271,5.271,0,0,0,1.024.105H874.6a5.5,5.5,0,0,0,5.5-5.5V538.562a5.5,5.5,0,0,0-5.5-5.494" transform="translate(4366.575 -1020.839)"/><path class="c" d="M711.054,427.31a5.5,5.5,0,0,0-5.5-5.5H680.082a5.5,5.5,0,0,0-5.5,5.5v25.47l.007.1v47.139a5.5,5.5,0,0,0,5.494,5.512h25.467a5.5,5.5,0,0,0,5.491-5.512V452.878c0-.033.011-.069.011-.1Z" transform="translate(4208.542 -1170.206)"/><path class="c" d="M711.036,498.716v79.948a5.485,5.485,0,0,1-5.491,5.487h-25.47a5.483,5.483,0,0,1-5.491-5.487V498.7a5.5,5.5,0,0,1,5.5-5.5h25.463a5.5,5.5,0,0,1,5.491,5.509" transform="translate(4208.542 -982.329)"/><path class="b" d="M695.5,494.7H615.538a5.5,5.5,0,0,0-5.487,5.509l-.022,167.068a5.5,5.5,0,0,0,5.509,5.494h25.474a5.53,5.53,0,0,0,5.469-4.931c0-.192.021-.367.021-.563V536.656a5.508,5.508,0,0,1,5.509-5.509H695.5a5.484,5.484,0,0,0,5.49-5.491V500.2a5.5,5.5,0,0,0-5.49-5.509" transform="translate(4038.675 -978.411)"/><path class="c" d="M689.521,437.275v-7.314a5.557,5.557,0,0,1,5.56-5.556h25.743a5.556,5.556,0,0,1,5.556,5.556v7.314a5.561,5.561,0,0,1-5.556,5.556H695.081a5.561,5.561,0,0,1-5.56-5.556" transform="translate(4247.847 -1163.372)"/></g></svg>