<?xml version="1.0" encoding="utf-8"?>
<!-- Generator: Adobe Illustrator 24.1.3, SVG Export Plug-In . SVG Version: 6.00 Build 0)  -->
<svg version="1.1" id="Layer_1" xmlns="http://www.w3.org/2000/svg" xmlns:xlink="http://www.w3.org/1999/xlink" x="0px" y="0px"
	 viewBox="0 0 666 519.7" style="enable-background:new 0 0 666 519.7;" xml:space="preserve">
<style type="text/css">
	.st0{opacity:6.000000e-02;}
</style>
<path class="st0" d="M161,424.4V394c0-3,2.5-5.5,5.5-5.5l0,0h27.1c3,0,5.5,2.5,5.5,5.5l0,0v30.4c0,3-2.5,5.5-5.5,5.5h-27
	C163.5,429.9,161,427.5,161,424.4"/>
<path class="st0" d="M253.5,231.5v80c0,3-2.5,5.5-5.5,5.5h-25.5c-3,0-5.5-2.5-5.5-5.5c0,0,0,0,0,0v-79.9c0-3,2.5-5.5,5.5-5.5h25.5
	C251.1,226.1,253.6,228.5,253.5,231.5L253.5,231.5"/>
<path class="st0" d="M193.6,171.6h-80c-3,0-5.5,2.5-5.5,5.5v25.5c0,1.8,0.9,3.4,2.3,4.4c0.1,0,0.1,0.1,0.1,0.1l0.1,0
	c0.9,0.6,1.9,0.9,3,0.9h43.5c3,0,5.5,2.4,5.5,5.5c0,0,0,0,0,0v98c0,3,2.5,5.5,5.5,5.5c0,0,0,0,0,0h25.5c3,0,5.5-2.5,5.5-5.5
	c0,0,0,0,0,0V177.1C199.1,174,196.6,171.6,193.6,171.6C193.6,171.6,193.6,171.6,193.6,171.6"/>
<path class="st0" d="M248.6,67.3h-25.5c-2.4,0-4.5,1.6-5.3,3.8c-0.1,0.4-0.2,0.7-0.2,1.1c0,0.2,0,0.4,0,0.6v15.3c0,0.2,0,0.4,0,0.6
	v113.9c0,3,2.5,5.5,5.5,5.5h25.5c3,0,5.5-2.5,5.5-5.5V72.8C254.1,69.7,251.7,67.3,248.6,67.3C248.6,67.3,248.6,67.3,248.6,67.3
	 M235.9,200.2c-5.4,0-9.7-4.3-9.7-9.7c0-5.4,4.3-9.7,9.7-9.7c5.4,0,9.7,4.3,9.7,9.7C245.6,195.9,241.2,200.2,235.9,200.2
	C235.9,200.2,235.9,200.2,235.9,200.2"/>
<path class="st0" d="M40.2,202.5V177c0-3,2.5-5.5,5.5-5.5l0,0h38.9c3,0,5.5,2.5,5.5,5.5l0,0v25.5c0,3-2.5,5.5-5.5,5.5l0,0H45.7
	C42.7,208,40.2,205.5,40.2,202.5L40.2,202.5"/>
<path class="st0" d="M199.1,75.4c0,0,0-0.1,0-0.1v-0.6l-0.1,0.1c-0.3-2.7-2.7-4.8-5.4-4.8h-25.5c-3,0-5.5,2.5-5.5,5.5l0,0v44.7
	c0,0,0,0.1,0,0.1V148c0,3,2.5,5.5,5.5,5.5h25.5c3,0,5.5-2.5,5.5-5.5v-27.8c0,0,0-0.1,0-0.1L199.1,75.4z"/>
<path class="st0" d="M139.1,226.1H5.5c-3,0-5.5,2.5-5.5,5.5c0,0,0,0,0,0v129.9c0,3,2.4,5.5,5.5,5.5c0,0,0,0,0,0h25.5
	c3,0,5.5-2.4,5.5-5.5v-96.3c1-1.6,2.8-2.5,4.6-2.5h98c3,0,5.5-2.5,5.5-5.5v-25.5C144.6,228.5,142.1,226.1,139.1,226.1 M19,254
	c-5.4,0-9.7-4.3-9.7-9.7c0-5.4,4.3-9.7,9.7-9.7c5.4,0,9.7,4.3,9.7,9.7C28.7,249.6,24.4,254,19,254C19,254,19,254,19,254"/>
<path class="st0" d="M139.3,117.1H128c-3,0-5.5,2.5-5.5,5.5v25.5c0,3,2.5,5.5,5.5,5.5h11.3c3,0,5.5-2.5,5.5-5.5l0,0v-25.5
	C144.8,119.6,142.3,117.1,139.3,117.1L139.3,117.1"/>
<path class="st0" d="M253.6,368.8v-28.3c0-3-2.5-5.5-5.5-5.5H113.6c-3,0-5.5,2.5-5.5,5.5v80c0,3,2.5,5.5,5.5,5.5h25.5
	c3,0,5.5-2.5,5.5-5.5V377c0-3,2.5-5.5,5.5-5.5c0,0,0,0,0,0h61.5c3,0,5.5,2.5,5.5,5.5c0,0,0,0,0,0v18.4l0.1,0v0c0,3,2.5,5.5,5.5,5.5
	h25.5c3,0,5.5-2.5,5.5-5.5c0,0,0,0,0,0v-25.5C253.7,369.6,253.6,369.2,253.6,368.8"/>
<path class="st0" d="M139.1,280.6h-80c-3,0-5.5,2.5-5.5,5.5l0,167.1c0,3,2.5,5.5,5.5,5.5c0,0,0,0,0,0h25.5c2.8,0,5.2-2.1,5.5-4.9
	c0-0.2,0-0.4,0-0.6V322.5c0-3,2.5-5.5,5.5-5.5c0,0,0,0,0,0h43.5c3,0,5.5-2.4,5.5-5.5c0,0,0,0,0,0v-25.5
	C144.6,283,142.1,280.6,139.1,280.6"/>
<g class="st0">
	<path d="M421.8,139.2c0.5-0.4,1-0.8,1.4-1.4h0c6.9-10.3-4.2-21.5-14.6-14.6c-0.5,0.4-1,0.8-1.4,1.4
		C400.4,135,411.5,146.1,421.8,139.2z"/>
	<path d="M476.3,302.7c0.5-0.4,1-0.8,1.3-1.4c6.9-10.3-4.2-21.5-14.6-14.6c-0.5,0.4-1,0.8-1.4,1.4
		C454.9,298.5,466,309.6,476.3,302.7z"/>
	<path d="M272.3,0v519.7h393.6V0H272.3z M561.1,200.8v-28.6c0-3,2.5-5.5,5.5-5.5h25.5c3,0,5.5,2.5,5.5,5.5v28.6c0,3-2.5,5.5-5.5,5.5
		h-25.5C563.6,206.3,561.1,203.8,561.1,200.8L561.1,200.8z M560.5,227.5c0-3,2.5-5.5,5.5-5.5h54.5c3,0,5.5,2.5,5.5,5.5V253
		c0,3-2.5,5.5-5.5,5.5v0H566c-3,0-5.5-2.5-5.5-5.5V227.5z M468.4,21.1c0-3,2.5-5.5,5.5-5.5h25.5c3,0,5.5,2.5,5.5,5.5v31.4
		c0,3,2.5,5.5,5.5,5.5h27.7v0c3,0,5.5,2.5,5.5,5.5v80c0,3-2.5,5.5-5.5,5.5h-26.7c-3,0-5.5-2.5-5.5-5.5V99.4
		c-0.3-2.8-2.6-4.9-5.4-4.9h-26.6c-3,0-5.5-2.5-5.5-5.5V21.1z M451.5,118.5c0-3,2.5-5.5,5.5-5.5h25.5c3,0,5.5,2.5,5.5,5.5v28.6
		c0,0.1,0,0.1,0,0.2V162c0,3,2.5,5.5,5.5,5.5h43.5h0c0,0,0,0,0,0c3,0,5.5,2.5,5.5,5.5v25.4c0,0,0,0,0,0c0,3-2.5,5.5-5.5,5.5H457
		c0,0,0,0,0,0c-3,0-5.5-2.5-5.5-5.5V118.5z M397,85.3c0-3,2.5-5.5,5.5-5.5H428h0c3,0,5.5,2.5,5.5,5.5l0,58.7c0,0,0,0,0,0
		c0,3-2.5,5.5-5.5,5.5h-25.5c0,0,0,0,0,0c-3,0-5.5-2.5-5.5-5.5L397,85.3C397,85.3,397,85.3,397,85.3z M342.1,30.9
		c0-3.1,2.5-5.6,5.6-5.6c0,0,0,0,0,0h25.7c3.1,0,5.6,2.5,5.6,5.6v0v7.3c0,3.1-2.5,5.6-5.6,5.6h-25.7c-3.1,0-5.6-2.5-5.6-5.6V30.9z
		 M342.4,107.5V64c0,0,0,0,0,0c0-3,2.5-5.5,5.5-5.5h25.5c0,0,0,0,0,0c3,0,5.5,2.5,5.5,5.5v5.8l0,0l0,15.8V144c0,3-2.5,5.5-5.5,5.5
		h-43.5c0,0,0,0,0,0c-3,0-5.5,2.5-5.5,5.5v7c0,3,2.5,5.5,5.5,5.5h98v0c3,0,5.5,2.5,5.5,5.5v25.5c0,3-2.5,5.5-5.5,5.5H293.4
		c0,0,0,0,0,0c-3,0-5.5-2.5-5.5-5.5v-79.9c0,0,0,0,0,0c0-3,2.5-5.5,5.5-5.5h43.5C339.9,113,342.4,110.6,342.4,107.5z M287.9,21.4
		c0-3,2.5-5.5,5.5-5.5h25.5c3,0,5.5,2.5,5.5,5.5l0,25.5c0,0,0,0.1,0,0.1v47.1c0,0,0,0,0,0c0,3-2.5,5.5-5.5,5.5h-25.5c0,0,0,0,0,0
		c-3,0-5.5-2.5-5.5-5.5V47l0-0.1V21.4z M324.3,280.7v79.9c0,3-2.5,5.5-5.5,5.5c0,0,0,0,0,0h-25.5c-3,0-5.5-2.4-5.5-5.5c0,0,0,0,0,0
		v-80c0-3,2.5-5.5,5.5-5.5h25.5C321.9,275.2,324.3,277.6,324.3,280.7L324.3,280.7z M336.9,258.5h-43.5c-3,0-5.5-2.5-5.5-5.5v-25.5
		c0-3,2.5-5.5,5.5-5.5c0,0,0,0,0,0h80c3,0,5.5,2.5,5.5,5.5c0,0,0,0,0,0h0V362c0,3-2.4,5.5-5.5,5.5c0,0,0,0,0,0h-25.5
		c-3,0-5.5-2.5-5.5-5.5c0,0,0,0,0,0v-98C342.4,260.9,339.9,258.5,336.9,258.5z M380.1,421.4c0,3-2.5,5.5-5.5,5.5h-25.5
		c-3,0-5.5-2.5-5.5-5.5h0V391c0-3,2.5-5.5,5.5-5.5h25.5c3,0,5.5,2.5,5.5,5.5V421.4z M432.9,463.8c0,3-2.5,5.5-5.5,5.5h-25.5
		c-3,0-5.5-2.5-5.5-5.5c0,0,0,0,0,0h0v-64.1c0-3,2.5-5.5,5.5-5.5h25.5c3,0,5.5,2.5,5.5,5.5V463.8z M446,258.5h-7c0,0,0,0,0,0
		c-3,0-5.5,2.5-5.5,5.5v98c0,0,0,0,0,0c0,3-2.5,5.5-5.5,5.5h-25.5c0,0,0,0,0,0c-3,0-5.5-2.5-5.5-5.5V227.5c0,0,0,0,0,0
		c0-3,2.5-5.5,5.5-5.5h79.9c0,0,0,0,0,0c3,0,5.5,2.5,5.5,5.5v79.9c0,0,0,0,0,0c0,3-2.5,5.5-5.5,5.5H457c0,0,0,0,0,0
		c-3,0-5.5-2.5-5.5-5.5V264c0,0,0,0,0,0C451.5,260.9,449,258.5,446,258.5z M591.4,331c3,0,5.5,2.5,5.5,5.5V362c0,3-2.5,5.5-5.5,5.5
		c0,0,0,0,0,0h-98c-3,0-5.5,2.5-5.5,5.5v43.5c0,3-2.5,5.5-5.5,5.5H457c-3,0-5.5-2.4-5.5-5.5c0,0,0,0,0,0v-80c0-3,2.5-5.5,5.5-5.5
		c0,0,0,0,0,0L591.4,331z M596.4,497.8c0,3-2.5,5.5-5.5,5.5h-25.5c-3,0-5.5-2.5-5.5-5.5V445c0-3,2.5-5.5,5.5-5.5h25.5
		c3,0,5.5,2.5,5.5,5.5V497.8z M642,416.5c0,3-2.5,5.5-5.5,5.5h-52.8c-0.1,0-0.1,0-0.2,0h-35.6c-3,0-5.5,2.5-5.5,5.5V471c0,0,0,0,0,0
		c0,3-2.5,5.5-5.5,5.5H457c0,0,0,0,0,0c-3,0-5.5-2.5-5.5-5.5v-25.5c0,0,0,0,0,0c0-3,2.5-5.5,5.5-5.5h43.5c0,0,0,0,0,0
		c3,0,5.5-2.5,5.5-5.5V391c0-3,2.5-5.5,5.5-5.5h125v0c3,0,5.5,2.5,5.5,5.5V416.5z M651.4,362c0,3-2.5,5.5-5.5,5.5h-25.5
		c-0.3,0-0.7,0-1-0.1l-0.1,0c-0.2-0.1-0.4-0.1-0.6-0.2c-0.2,0-0.3-0.1-0.5-0.1l0,0c-2-0.9-3.3-2.8-3.3-5v-43.5c0-3-2.5-5.5-5.5-5.5
		h-98c0,0,0,0,0,0c-3,0-5.5-2.5-5.5-5.5v-79.9c0,0,0,0,0,0c0-3,2.5-5.5,5.5-5.5h25.4c0,0,0,0,0,0c3,0,5.5,2.5,5.5,5.5V271
		c0,3,2.5,5.5,5.5,5.5h98c3,0,5.5,2.5,5.5,5.5V362z"/>
</g>
</svg>
