<svg xmlns="http://www.w3.org/2000/svg" width="145.475" height="145.8" viewBox="0 0 145.475 145.8"><defs><style>.a{fill:#ea9d0b;}.b{fill:#eef4f9;}.c{fill:#242424;}.d{fill:#004b97;}</style></defs><g transform="translate(-730.704 -435.06)"><path class="a" d="M731.732,463.4a5.916,5.916,0,1,0,5.92-5.914A5.916,5.916,0,0,0,731.732,463.4Z" transform="translate(0.375 8.177)"/><path class="a" d="M731.732,489.429a5.916,5.916,0,1,0,5.92-5.92A5.917,5.917,0,0,0,731.732,489.429Z" transform="translate(0.375 17.665)"/><path class="a" d="M731.732,515.449a5.916,5.916,0,1,0,5.92-5.914A5.919,5.919,0,0,0,731.732,515.449Z" transform="translate(0.375 27.154)"/><g transform="translate(761.326 465.931)"><path class="b" d="M831.284,489.357h-2.329A2.078,2.078,0,0,1,827,487.992c-.256-.674-.536-1.337-.832-1.99a2.08,2.08,0,0,1,.419-2.357l1.658-1.658a6.345,6.345,0,0,0-.014-8.953l-5.966-5.967a6.354,6.354,0,0,0-8.956,0l-1.655,1.655a2.094,2.094,0,0,1-2.357.422c-.652-.3-1.316-.573-1.992-.845a2.082,2.082,0,0,1-1.373-1.96v-2.321a6.331,6.331,0,0,0-6.333-6.336h-8.448a6.337,6.337,0,0,0-6.337,6.336v2.321a2.068,2.068,0,0,1-1.362,1.954c-.677.261-1.333.536-1.99.832a2.084,2.084,0,0,1-2.358-.422l-1.655-1.658a6.359,6.359,0,0,0-8.954,0l-5.969,5.988a6.354,6.354,0,0,0,0,8.956l1.653,1.655a2.081,2.081,0,0,1,.426,2.357c-.3.652-.576,1.315-.835,2a2.072,2.072,0,0,1-1.969,1.359H759.48a6.335,6.335,0,0,0-6.336,6.336v8.45a6.332,6.332,0,0,0,6.336,6.333H761.8a2.078,2.078,0,0,1,1.956,1.365c.254.677.533,1.337.832,2a2.073,2.073,0,0,1-.424,2.351l-1.655,1.661a6.345,6.345,0,0,0,0,8.949l5.969,5.969a6.348,6.348,0,0,0,8.952,0l1.658-1.652a2.08,2.08,0,0,1,2.355-.42c.654.295,1.318.57,1.995.846a2.058,2.058,0,0,1,1.377,1.955v2.324a6.34,6.34,0,0,0,6.337,6.337H799.6a6.335,6.335,0,0,0,6.333-6.337v-2.324a2.084,2.084,0,0,1,1.367-1.955c.677-.258,1.337-.535,1.992-.828a2.088,2.088,0,0,1,2.357.418l1.655,1.655a6.353,6.353,0,0,0,8.953-.005l5.969-5.969a6.35,6.35,0,0,0,0-8.957l-1.655-1.654a2.082,2.082,0,0,1-.42-2.357c.3-.656.576-1.315.846-2a2.075,2.075,0,0,1,1.955-1.369h2.329a6.332,6.332,0,0,0,6.33-6.333v-8.45A6.334,6.334,0,0,0,831.284,489.357Z" transform="translate(-753.144 -457.683)"/><path class="a" d="M808.139,492.869c-.021-.508-.057-1.014-.117-1.519-.067-.538-.145-1.078-.261-1.6-.071-.345-.169-.685-.266-1.03-.115-.433-.246-.861-.4-1.283-.1-.3-.212-.584-.321-.873a18.186,18.186,0,0,0-.932-1.98c-.03-.046-.044-.1-.071-.15a19.158,19.158,0,0,0-1.9-2.767c-.06-.074-.132-.146-.2-.22-.291-.345-.589-.68-.9-1-.167-.169-.338-.332-.512-.5-.213-.2-.424-.392-.632-.579-.258-.22-.517-.435-.787-.647l-.344-.255a18.889,18.889,0,0,0-11.323-3.768c-.213,0-.423.03-.633.038-.453.016-.9.038-1.356.087-.242.023-.478.049-.719.085a19.687,19.687,0,0,0-2.044.382,19.017,19.017,0,0,0,.011,36.828.409.409,0,0,1,.109.02,20.383,20.383,0,0,0,2.215.42c.489.06.981.075,1.474.1.329.018.636.064.978.064.606,0,1.228-.041,1.864-.1.068,0,.141-.022.211-.026.516-.057,1.036-.135,1.567-.242.209-.038.407-.094.609-.138.371-.087.74-.18,1.119-.288.3-.093.58-.194.876-.3s.587-.209.883-.325.554-.243.827-.368c.355-.165.708-.326,1.056-.516h.012a25.107,25.107,0,0,0,5.416-3.906,6.721,6.721,0,0,0,1.129-1.386,22.588,22.588,0,0,0,3.185-8.682c.055-.405.106-.813.142-1.228.027-.386.051-.767.056-1.145,0-.12.015-.236.015-.353C808.177,493.427,808.15,493.153,808.139,492.869Z" transform="translate(-746.94 -451.477)"/></g><g transform="translate(759.922 464.523)"><path class="c" d="M799.977,543.927h-8.448a7.751,7.751,0,0,1-7.74-7.737v-2.325a.66.66,0,0,0-.444-.635c-.75-.3-1.43-.587-2.1-.888a.663.663,0,0,0-.783.132l-1.661,1.658a7.941,7.941,0,0,1-10.932,0l-5.972-5.974a7.778,7.778,0,0,1,0-10.932l1.655-1.661a.691.691,0,0,0,.143-.776c-.314-.689-.6-1.381-.872-2.082a.681.681,0,0,0-.643-.46h-2.323a7.745,7.745,0,0,1-7.74-7.736v-8.45a7.747,7.747,0,0,1,7.74-7.739h2.323a.679.679,0,0,0,.651-.438c.28-.73.568-1.418.879-2.1a.687.687,0,0,0-.136-.772l-1.661-1.661a7.771,7.771,0,0,1,0-10.935l5.969-5.991a7.942,7.942,0,0,1,10.935,0l1.659,1.659a.693.693,0,0,0,.779.143c.685-.312,1.37-.6,2.074-.872a.674.674,0,0,0,.463-.641V464.39a7.749,7.749,0,0,1,7.74-7.739h8.448a7.743,7.743,0,0,1,7.736,7.739v2.321a.688.688,0,0,0,.449.644c.737.291,1.419.576,2.092.88a.671.671,0,0,0,.783-.135l1.662-1.655a7.946,7.946,0,0,1,10.936,0l5.966,5.972a7.774,7.774,0,0,1,.016,10.935l-1.658,1.661a.674.674,0,0,0-.142.77c.314.7.6,1.385.871,2.088a.686.686,0,0,0,.641.459h2.329a7.744,7.744,0,0,1,7.733,7.739v8.45a7.742,7.742,0,0,1-7.733,7.736H829.33a.675.675,0,0,0-.636.446c-.295.74-.58,1.422-.887,2.1a.684.684,0,0,0,.128.779l1.661,1.661a7.769,7.769,0,0,1,0,10.935l-5.972,5.973a7.938,7.938,0,0,1-10.93.011l-1.662-1.659a.693.693,0,0,0-.772-.138c-.7.313-1.381.6-2.082.867a.692.692,0,0,0-.467.646v2.325A7.746,7.746,0,0,1,799.977,543.927Zm-19.035-14.462a3.468,3.468,0,0,1,1.466.322c.625.285,1.272.554,1.93.817a3.459,3.459,0,0,1,2.258,3.265v2.32a4.941,4.941,0,0,0,4.933,4.933h8.448a4.936,4.936,0,0,0,4.93-4.933v-2.325a3.506,3.506,0,0,1,2.286-3.271c.632-.242,1.271-.51,1.9-.8a3.567,3.567,0,0,1,3.925.707l1.655,1.655a5.068,5.068,0,0,0,6.972-.01l5.966-5.965a4.957,4.957,0,0,0,0-6.974l-1.653-1.653a3.483,3.483,0,0,1-.7-3.94c.285-.625.55-1.264.812-1.921a3.476,3.476,0,0,1,3.255-2.256h2.335a4.935,4.935,0,0,0,4.928-4.929v-8.45a4.938,4.938,0,0,0-4.928-4.933H829.33a3.5,3.5,0,0,1-3.268-2.282c-.241-.633-.51-1.27-.793-1.9a3.482,3.482,0,0,1,.707-3.925l1.653-1.655a4.957,4.957,0,0,0-.014-6.972l-5.963-5.969a5.072,5.072,0,0,0-6.974.005l-1.653,1.65a3.528,3.528,0,0,1-3.935.7q-.937-.418-1.923-.811a3.479,3.479,0,0,1-2.258-3.267V464.39a4.933,4.933,0,0,0-4.93-4.932h-8.448a4.938,4.938,0,0,0-4.933,4.932v2.321a3.48,3.48,0,0,1-2.286,3.272c-.625.242-1.258.506-1.886.793a3.537,3.537,0,0,1-3.936-.714l-1.655-1.653a5.076,5.076,0,0,0-6.97,0L763.9,474.4a4.957,4.957,0,0,0,0,6.974l1.652,1.655a3.488,3.488,0,0,1,.7,3.933q-.426.938-.8,1.91a3.476,3.476,0,0,1-3.253,2.26h-2.349a4.941,4.941,0,0,0-4.933,4.933v8.45a4.937,4.937,0,0,0,4.933,4.929h2.323a3.5,3.5,0,0,1,3.274,2.286c.24.636.5,1.266.792,1.9a3.486,3.486,0,0,1-.714,3.929l-1.648,1.655a4.959,4.959,0,0,0,0,6.972l5.962,5.965a5.076,5.076,0,0,0,6.973,0l1.655-1.655A3.46,3.46,0,0,1,780.942,529.465Z" transform="translate(-752.115 -456.651)"/><path class="c" d="M789.584,514.5c-.252,0-.487-.019-.719-.041l-.327-.025c-.7-.031-1.142-.052-1.587-.106a22.521,22.521,0,0,1-2.373-.45,20.416,20.416,0,0,1-.131-39.568,19.953,19.953,0,0,1,2.216-.418c.239-.036.5-.066.766-.09.475-.049.954-.076,1.442-.093.355-.027.517-.038.68-.038a20.379,20.379,0,0,1,12.161,4.05l.34.248c.315.244.591.475.867.708l1.235,1.159c.337.34.661.7.973,1.075l-.877,1.123,1.081-.894a20.665,20.665,0,0,1,2.044,2.976,23,23,0,0,1,1.079,2.294l.345.929c.158.454.3.92.428,1.389.109.392.207.742.282,1.1.12.56.21,1.141.278,1.721.067.543.105,1.085.128,1.628.029.482.04.7.04.918l-.016.353c-.01.433-.027.839-.061,1.25-.038.449-.093.882-.153,1.315a23.811,23.811,0,0,1-3.383,9.232,7.962,7.962,0,0,1-1.362,1.67,26.428,26.428,0,0,1-5.707,4.114c-.045.023-.086.044-.13.061-.3.164-.613.307-.924.449l-.9-1.126.6,1.269c-.228.106-.454.213-.715.311-.3.116-.61.231-.914.334s-.6.216-.916.314c-.433.123-.827.218-1.216.311-.363.089-.521.127-.692.154-.532.111-1.1.191-1.646.254-.053.01-.322.037-.374.037A17.674,17.674,0,0,1,789.584,514.5Zm-4.469-3.376c.067.014.128.025.176.038a17.885,17.885,0,0,0,2.022.381c.362.048.729.061,1.1.076l.707.045a12.139,12.139,0,0,0,2.193-.065c.666-.078,1.15-.149,1.639-.248l.351-.076c.565-.131.916-.22,1.271-.319.247-.08.516-.173.794-.272s.561-.2.841-.307c.2-.076.355-.154.512-.231l.321-.149c.3-.136.6-.276.887-.434a1.1,1.1,0,0,1,.135-.064,23.561,23.561,0,0,0,5-3.627,5.329,5.329,0,0,0,.9-1.105,21.045,21.045,0,0,0,2.991-8.148c.052-.37.1-.749.134-1.139.022-.351.045-.707.049-1.06l1.419-.3-1.4-.022c0-.16-.011-.312-.019-.467l-.019-.328c-.019-.472-.052-.943-.109-1.41-.06-.5-.132-.992-.236-1.474-.066-.3-.147-.6-.231-.894-.126-.468-.247-.86-.382-1.249l-.295-.8a17.559,17.559,0,0,0-.868-1.852,17.137,17.137,0,0,0-1.826-2.7l.888-1.114-1.074.9c-.269-.315-.543-.622-.828-.918l-1.085-1.014c-.214-.181-.456-.383-.707-.579l-.321-.237a17.6,17.6,0,0,0-10.487-3.492c-.023,0-.558.038-.579.038-.426.014-.841.033-1.264.078-.231.025-.449.049-.663.081a17.6,17.6,0,0,0-1.93,34.451Z" transform="translate(-745.91 -450.445)"/></g><path class="c" d="M760.626,483.645H740.619a5.584,5.584,0,0,1-5.578-5.577V466.722a1.4,1.4,0,1,1,2.806,0v11.345a2.776,2.776,0,0,0,2.773,2.77h20.008a1.4,1.4,0,0,1,0,2.807Z" transform="translate(1.581 11.032)"/><path class="c" d="M736.442,515.653a1.4,1.4,0,0,1-1.4-1.4V502.906a5.581,5.581,0,0,1,5.578-5.576h20.008a1.4,1.4,0,1,1,0,2.806H740.619a2.776,2.776,0,0,0-2.773,2.77v11.343A1.4,1.4,0,0,1,736.442,515.653Z" transform="translate(1.581 22.704)"/><path class="c" d="M738.022,471.285a7.317,7.317,0,1,1,7.321-7.317A7.326,7.326,0,0,1,738.022,471.285Zm0-11.827a4.51,4.51,0,1,0,4.514,4.51A4.515,4.515,0,0,0,738.022,459.458Z" transform="translate(0 7.872)"/><path class="c" d="M738.022,497.313A7.32,7.32,0,1,1,745.344,490,7.325,7.325,0,0,1,738.022,497.313Zm0-11.832A4.513,4.513,0,1,0,742.536,490,4.52,4.52,0,0,0,738.022,485.48Z" transform="translate(0 17.36)"/><path class="c" d="M738.022,523.339a7.32,7.32,0,1,1,7.321-7.321A7.327,7.327,0,0,1,738.022,523.339Zm0-11.832a4.513,4.513,0,1,0,4.514,4.511A4.515,4.515,0,0,0,738.022,511.507Z" transform="translate(0 26.85)"/><path class="c" d="M758.164,489.817H740.778a1.4,1.4,0,1,1,0-2.806h17.386a1.4,1.4,0,1,1,0,2.806Z" transform="translate(3.161 18.942)"/><g transform="translate(843.274 464.523)"><path class="a" d="M827.612,463.593a5.916,5.916,0,1,0,5.914-5.914A5.914,5.914,0,0,0,827.612,463.593Z" transform="translate(-807.941 -456.276)"/><path class="a" d="M827.612,489.622a5.916,5.916,0,1,0,5.914-5.92A5.914,5.914,0,0,0,827.612,489.622Z" transform="translate(-807.941 -446.788)"/><path class="a" d="M827.612,515.644a5.916,5.916,0,1,0,5.914-5.916A5.916,5.916,0,0,0,827.612,515.644Z" transform="translate(-807.941 -437.299)"/><path class="c" d="M834.606,483.645H814.6a1.4,1.4,0,1,1,0-2.807h20.005a2.775,2.775,0,0,0,2.773-2.77V466.722a1.4,1.4,0,1,1,2.807,0v11.345A5.585,5.585,0,0,1,834.606,483.645Z" transform="translate(-813.197 -453.491)"/><path class="c" d="M838.782,515.653a1.4,1.4,0,0,1-1.4-1.4V502.906a2.775,2.775,0,0,0-2.773-2.77H814.6a1.4,1.4,0,1,1,0-2.806h20.005a5.582,5.582,0,0,1,5.58,5.576v11.343A1.4,1.4,0,0,1,838.782,515.653Z" transform="translate(-813.197 -441.819)"/><path class="c" d="M833.9,471.285a7.317,7.317,0,1,1,7.32-7.317A7.326,7.326,0,0,1,833.9,471.285Zm0-11.827a4.51,4.51,0,1,0,4.514,4.51A4.514,4.514,0,0,0,833.9,459.458Z" transform="translate(-808.316 -456.651)"/><path class="c" d="M833.9,497.313a7.32,7.32,0,1,1,7.32-7.316A7.325,7.325,0,0,1,833.9,497.313Zm0-11.832A4.513,4.513,0,1,0,838.415,490,4.519,4.519,0,0,0,833.9,485.48Z" transform="translate(-808.316 -447.163)"/><path class="c" d="M833.9,523.339a7.32,7.32,0,1,1,7.32-7.321A7.327,7.327,0,0,1,833.9,523.339Zm0-11.832a4.513,4.513,0,1,0,4.514,4.511A4.513,4.513,0,0,0,833.9,511.507Z" transform="translate(-808.316 -437.674)"/><path class="c" d="M832.632,489.817H815.246a1.4,1.4,0,0,1,0-2.806h17.385a1.4,1.4,0,1,1,0,2.806Z" transform="translate(-812.961 -445.582)"/></g><g transform="translate(759.922 435.06)"><path class="d" d="M759.057,447.919A5.916,5.916,0,1,0,753.144,442,5.918,5.918,0,0,0,759.057,447.919Z" transform="translate(-751.74 -434.685)"/><path class="d" d="M785.085,447.919A5.916,5.916,0,1,0,779.168,442,5.917,5.917,0,0,0,785.085,447.919Z" transform="translate(-742.251 -434.685)"/><path class="d" d="M811.112,447.919a5.916,5.916,0,1,0-5.92-5.917A5.915,5.915,0,0,0,811.112,447.919Z" transform="translate(-732.763 -434.685)"/><path class="d" d="M759.057,544.038a5.917,5.917,0,1,0-5.913-5.917A5.918,5.918,0,0,0,759.057,544.038Z" transform="translate(-751.74 -399.641)"/><path class="d" d="M785.085,544.038a5.917,5.917,0,1,0-5.917-5.917A5.917,5.917,0,0,0,785.085,544.038Z" transform="translate(-742.251 -399.641)"/><path class="d" d="M811.112,544.038a5.917,5.917,0,1,0-5.92-5.917A5.915,5.915,0,0,0,811.112,544.038Z" transform="translate(-732.763 -399.641)"/><path class="c" d="M777.706,466.384a1.4,1.4,0,0,1-1.4-1.4V444.974a2.775,2.775,0,0,0-2.773-2.773H762.188a1.4,1.4,0,1,1,0-2.806h11.343a5.586,5.586,0,0,1,5.58,5.578v20.008A1.4,1.4,0,0,1,777.706,466.384Z" transform="translate(-748.954 -433.479)"/><path class="c" d="M794.2,466.384a1.4,1.4,0,0,1-1.4-1.4V444.974a5.587,5.587,0,0,1,5.58-5.578h11.339a1.4,1.4,0,1,1,0,2.806H798.374a2.776,2.776,0,0,0-2.773,2.773v20.008A1.4,1.4,0,0,1,794.2,466.384Z" transform="translate(-737.283 -433.479)"/><path class="c" d="M759.432,449.7a7.319,7.319,0,1,1,7.321-7.321A7.327,7.327,0,0,1,759.432,449.7Zm0-11.832a4.513,4.513,0,1,0,4.514,4.511A4.515,4.515,0,0,0,759.432,437.866Z" transform="translate(-752.115 -435.06)"/><path class="c" d="M785.46,449.7a7.319,7.319,0,1,1,7.317-7.321A7.328,7.328,0,0,1,785.46,449.7Zm0-11.832a4.513,4.513,0,1,0,4.511,4.511A4.519,4.519,0,0,0,785.46,437.866Z" transform="translate(-742.626 -435.06)"/><path class="c" d="M811.486,449.7a7.319,7.319,0,1,1,7.318-7.321A7.327,7.327,0,0,1,811.486,449.7Zm0-11.832A4.513,4.513,0,1,0,816,442.377,4.52,4.52,0,0,0,811.486,437.866Z" transform="translate(-733.137 -435.06)"/><path class="c" d="M783.879,463.921a1.4,1.4,0,0,1-1.4-1.4V445.133a1.4,1.4,0,1,1,2.806,0v17.385A1.4,1.4,0,0,1,783.879,463.921Z" transform="translate(-741.045 -431.899)"/></g><g transform="translate(759.922 547.952)"><path class="c" d="M809.712,544.782H798.374a5.589,5.589,0,0,1-5.58-5.58v-20.01a1.4,1.4,0,0,1,2.807,0V539.2a2.777,2.777,0,0,0,2.773,2.774h11.339a1.4,1.4,0,1,1,0,2.806Z" transform="translate(-737.283 -517.789)"/><path class="c" d="M773.531,544.782H762.188a1.4,1.4,0,0,1,0-2.806h11.343A2.776,2.776,0,0,0,776.3,539.2v-20.01a1.4,1.4,0,0,1,2.807,0V539.2A5.588,5.588,0,0,1,773.531,544.782Z" transform="translate(-748.954 -517.789)"/><path class="c" d="M811.486,545.815A7.32,7.32,0,1,1,818.8,538.5,7.326,7.326,0,0,1,811.486,545.815Zm0-11.834A4.514,4.514,0,1,0,816,538.5,4.525,4.525,0,0,0,811.486,533.982Z" transform="translate(-733.137 -512.908)"/><path class="c" d="M785.46,545.815a7.32,7.32,0,1,1,7.317-7.317A7.327,7.327,0,0,1,785.46,545.815Zm0-11.834a4.514,4.514,0,1,0,4.511,4.517A4.523,4.523,0,0,0,785.46,533.982Z" transform="translate(-742.626 -512.908)"/><path class="c" d="M759.432,545.815a7.32,7.32,0,1,1,7.321-7.317A7.326,7.326,0,0,1,759.432,545.815Zm0-11.834a4.514,4.514,0,1,0,4.514,4.517A4.52,4.52,0,0,0,759.432,533.982Z" transform="translate(-752.115 -512.908)"/><path class="c" d="M783.879,538.627a1.4,1.4,0,0,1-1.4-1.4V519.839a1.4,1.4,0,1,1,2.806,0v17.385A1.4,1.4,0,0,1,783.879,538.627Z" transform="translate(-741.045 -517.554)"/></g></g></svg>