<svg xmlns="http://www.w3.org/2000/svg" width="232.309" height="130.524" viewBox="0 0 232.309 130.524"><defs><style>.a{fill:#1d5ba6;}.b{fill:#aeb0b3;}</style></defs><g transform="translate(-297.691 -51)"><g transform="translate(297.691 171.399)"><path class="a" d="M671.265,568.187v9.8H670v-9.8Z" transform="translate(-670.001 -568.028)"/><path class="a" d="M673.871,569.262h-2.982v-1.075h7.257v1.075h-3v8.728h-1.28Z" transform="translate(-668.531 -568.028)"/><path class="a" d="M675.2,568.187h5.281v1.062h-4.015v3.258h3.71v1.046h-3.71v4.437H675.2Z" transform="translate(-661.402 -568.028)"/><path class="a" d="M686.6,573.087c0,3.375-2.05,5.164-4.548,5.164-2.592,0-4.41-2.007-4.41-4.976,0-3.112,1.936-5.148,4.554-5.148C684.876,568.127,686.6,570.177,686.6,573.087Zm-7.6.159c0,2.095,1.134,3.97,3.128,3.97s3.141-1.845,3.141-4.071c0-1.949-1.017-3.986-3.128-3.986C680.046,569.16,679,571.1,679,573.246Z" transform="translate(-657.347 -568.127)"/><path class="a" d="M681.641,568.365a13.016,13.016,0,0,1,2.43-.2,4.011,4.011,0,0,1,2.836.8,2.442,2.442,0,0,1,.77,1.864,2.577,2.577,0,0,1-1.845,2.5v.043a2.444,2.444,0,0,1,1.439,1.978,15.589,15.589,0,0,0,.757,2.69h-1.309a12.392,12.392,0,0,1-.653-2.339c-.295-1.354-.818-1.864-1.968-1.906H682.9v4.246h-1.264Zm1.264,4.463h1.3c1.352,0,2.209-.741,2.209-1.861,0-1.264-.913-1.816-2.252-1.832a5.207,5.207,0,0,0-1.253.117Z" transform="translate(-650.734 -568.072)"/><path class="a" d="M685.884,576.547a4.475,4.475,0,0,0,2.27.643c1.293,0,2.05-.682,2.05-1.673,0-.916-.523-1.439-1.845-1.952-1.6-.566-2.589-1.394-2.589-2.777,0-1.527,1.264-2.661,3.17-2.661a4.431,4.431,0,0,1,2.167.481l-.35,1.033a3.886,3.886,0,0,0-1.862-.467c-1.338,0-1.845.8-1.845,1.471,0,.914.6,1.365,1.946,1.891,1.659.64,2.5,1.442,2.5,2.881,0,1.511-1.121,2.82-3.433,2.82a5.056,5.056,0,0,1-2.5-.624Z" transform="translate(-644.238 -568.127)"/><path class="a" d="M696.877,573.686c-.072-1.367-.157-3.011-.143-4.232h-.042c-.337,1.147-.743,2.371-1.237,3.723l-1.731,4.758h-.959l-1.585-4.671c-.467-1.381-.858-2.647-1.137-3.81h-.029c-.027,1.221-.1,2.865-.188,4.333l-.26,4.2h-1.211l.685-9.8h1.617l1.673,4.742c.406,1.208.741,2.283.988,3.3h.042c.247-.988.6-2.063,1.033-3.3l1.745-4.742h1.617l.611,9.8h-1.237Z" transform="translate(-639.622 -568.028)"/><path class="a" d="M694.909,574.907l-1.019,3.083H692.58l3.332-9.8h1.527l3.346,9.8H699.43l-1.046-3.083Zm3.213-.99-.958-2.82c-.218-.643-.364-1.221-.51-1.79h-.029c-.143.584-.305,1.179-.494,1.776l-.958,2.833Z" transform="translate(-632.627 -568.028)"/><path class="a" d="M696.213,568.187h1.264v8.744h4.193v1.06h-5.456Z" transform="translate(-626.613 -568.028)"/><path class="a" d="M698.8,568.187h1.264v8.744h4.19v1.06H698.8Z" transform="translate(-622.331 -568.028)"/><path class="a" d="M709.091,578.09c-.273-.276-.536-.552-.913-.959a4.02,4.02,0,0,1-2.868,1.12A2.773,2.773,0,0,1,702.3,575.5a3.217,3.217,0,0,1,1.917-2.868v-.042a3.379,3.379,0,0,1-.812-2.05,2.377,2.377,0,0,1,2.485-2.416,2.041,2.041,0,0,1,2.169,2.082c0,1.03-.6,1.845-2.153,2.616v.045c.831.958,1.76,2.036,2.387,2.735a7.215,7.215,0,0,0,.945-2.865h1.16a7.4,7.4,0,0,1-1.41,3.619c.526.555,1.033,1.107,1.617,1.731Zm-1.54-1.686c-.581-.643-1.673-1.832-2.764-3.086a2.412,2.412,0,0,0-1.264,1.994,1.933,1.933,0,0,0,2.007,1.978A2.736,2.736,0,0,0,707.551,576.4Zm-2.982-5.977a2.757,2.757,0,0,0,.741,1.761c.99-.568,1.63-1.091,1.63-1.922A1.152,1.152,0,0,0,705.807,569,1.276,1.276,0,0,0,704.57,570.426Z" transform="translate(-616.534 -568.127)"/><path class="a" d="M715.451,573.686c-.074-1.367-.159-3.011-.146-4.232h-.042c-.337,1.147-.744,2.371-1.235,3.723l-1.734,4.758h-.959l-1.585-4.671c-.467-1.381-.858-2.647-1.137-3.81h-.026c-.029,1.221-.1,2.865-.191,4.333l-.26,4.2h-1.208l.685-9.8h1.614l1.673,4.742c.406,1.208.741,2.283.988,3.3h.042c.247-.988.6-2.063,1.033-3.3l1.745-4.742h1.617l.611,9.8H715.7Z" transform="translate(-608.879 -568.028)"/><path class="a" d="M716.509,573.394H712.7v3.537h4.248v1.06h-5.513v-9.8h5.295v1.062H712.7v3.1h3.813Z" transform="translate(-601.422 -568.028)"/><path class="a" d="M714.128,568.365a18.083,18.083,0,0,1,2.693-.2,5.621,5.621,0,0,1,3.97,1.222,4.511,4.511,0,0,1,1.381,3.521,5.179,5.179,0,0,1-1.41,3.81,6.04,6.04,0,0,1-4.333,1.413,20.664,20.664,0,0,1-2.3-.117Zm1.264,8.667a7.964,7.964,0,0,0,1.282.074c2.7,0,4.174-1.514,4.174-4.161.014-2.313-1.293-3.781-3.972-3.781a7.3,7.3,0,0,0-1.484.13Z" transform="translate(-596.959 -568.072)"/><path class="a" d="M719.044,568.187v9.8h-1.267v-9.8Z" transform="translate(-590.919 -568.028)"/><path class="a" d="M720.359,568.187v5.8c0,2.2.977,3.125,2.286,3.125,1.455,0,2.384-.958,2.384-3.125v-5.8h1.282V573.9c0,3.011-1.588,4.248-3.712,4.248-2.007,0-3.518-1.15-3.518-4.19v-5.775Z" transform="translate(-588.759 -568.028)"/><path class="a" d="M731.057,573.686c-.072-1.367-.157-3.011-.146-4.232h-.04c-.337,1.147-.744,2.371-1.237,3.723l-1.731,4.758h-.961l-1.582-4.671c-.467-1.381-.86-2.647-1.137-3.81h-.029c-.029,1.221-.1,2.865-.189,4.333l-.263,4.2h-1.208l.685-9.8h1.615l1.672,4.742c.409,1.208.744,2.283.988,3.3h.045c.247-.988.6-2.063,1.033-3.3l1.745-4.742h1.614l.614,9.8h-1.237Z" transform="translate(-583.045 -568.028)"/><path class="a" d="M733.277,573.394h-3.81v3.537h4.246v1.06H728.2v-9.8h5.295v1.062h-4.028v3.1h3.81Z" transform="translate(-573.666 -568.028)"/><path class="a" d="M730.9,577.99v-9.8h1.383l3.144,4.96a28.242,28.242,0,0,1,1.76,3.187l.026-.016c-.117-1.309-.143-2.5-.143-4.028v-4.1h1.192v9.8h-1.282l-3.109-4.973a31.267,31.267,0,0,1-1.835-3.274l-.043.016c.072,1.237.1,2.414.1,4.041v4.19Z" transform="translate(-569.204 -568.028)"/><path class="a" d="M737.063,569.262h-2.982v-1.075h7.257v1.075h-3v8.728h-1.28Z" transform="translate(-563.931 -568.028)"/><path class="a" d="M742.3,573.394h-3.813v3.537h4.248v1.06h-5.512v-9.8h5.295v1.062h-4.031v3.1H742.3Z" transform="translate(-558.724 -568.028)"/><path class="a" d="M739.923,568.365a13.035,13.035,0,0,1,2.43-.2,4.007,4.007,0,0,1,2.836.8,2.433,2.433,0,0,1,.77,1.864,2.574,2.574,0,0,1-1.846,2.5v.043a2.448,2.448,0,0,1,1.439,1.978,15.545,15.545,0,0,0,.757,2.69H745a12.387,12.387,0,0,1-.653-2.339c-.295-1.354-.818-1.864-1.965-1.906h-1.195v4.246h-1.264Zm1.264,4.463h1.3c1.349,0,2.209-.741,2.209-1.861,0-1.264-.916-1.816-2.254-1.832a5.241,5.241,0,0,0-1.253.117Z" transform="translate(-554.261 -568.072)"/><path class="a" d="M742.871,568.349a14.775,14.775,0,0,1,2.429-.189,4.028,4.028,0,0,1,2.748.813,2.642,2.642,0,0,1,.857,2.053,2.89,2.89,0,0,1-.754,2.1,4.072,4.072,0,0,1-3,1.075,4.283,4.283,0,0,1-1.017-.088v3.927h-1.267Zm1.267,4.726a4.165,4.165,0,0,0,1.046.1c1.527,0,2.459-.741,2.459-2.092,0-1.3-.916-1.92-2.313-1.92a5.109,5.109,0,0,0-1.192.1Z" transform="translate(-549.382 -568.072)"/><path class="a" d="M745.786,568.365a13.03,13.03,0,0,1,2.429-.2,4.008,4.008,0,0,1,2.836.8,2.436,2.436,0,0,1,.773,1.864,2.576,2.576,0,0,1-1.848,2.5v.043a2.449,2.449,0,0,1,1.439,1.978,15.577,15.577,0,0,0,.757,2.69h-1.309a12.823,12.823,0,0,1-.653-2.339c-.292-1.354-.818-1.864-1.965-1.906h-1.192v4.246h-1.266Zm1.266,4.463h1.3c1.352,0,2.209-.741,2.209-1.861,0-1.264-.916-1.816-2.254-1.832a5.2,5.2,0,0,0-1.251.117Z" transform="translate(-544.557 -568.072)"/><path class="a" d="M750,568.187v9.8h-1.266v-9.8Z" transform="translate(-539.675 -568.028)"/><path class="a" d="M750.178,576.547a4.484,4.484,0,0,0,2.27.643c1.293,0,2.05-.682,2.05-1.673,0-.916-.523-1.439-1.845-1.952-1.6-.566-2.592-1.394-2.592-2.777,0-1.527,1.266-2.661,3.173-2.661a4.43,4.43,0,0,1,2.167.481l-.35,1.033a3.886,3.886,0,0,0-1.862-.467c-1.338,0-1.845.8-1.845,1.471,0,.914.6,1.365,1.946,1.891,1.659.64,2.5,1.442,2.5,2.881,0,1.511-1.12,2.82-3.433,2.82a5.057,5.057,0,0,1-2.5-.624Z" transform="translate(-537.815 -568.127)"/><path class="a" d="M757.823,573.394h-3.81v3.537h4.246v1.06h-5.513v-9.8h5.295v1.062h-4.028v3.1h3.81Z" transform="translate(-533.036 -568.028)"/><path class="a" d="M755.576,576.547a4.465,4.465,0,0,0,2.268.643c1.3,0,2.052-.682,2.052-1.673,0-.916-.523-1.439-1.845-1.952-1.6-.566-2.592-1.394-2.592-2.777,0-1.527,1.267-2.661,3.17-2.661a4.444,4.444,0,0,1,2.17.481l-.351,1.033a3.886,3.886,0,0,0-1.862-.467c-1.338,0-1.848.8-1.848,1.471,0,.914.6,1.365,1.949,1.891,1.66.64,2.5,1.442,2.5,2.881,0,1.511-1.121,2.82-3.433,2.82a5.045,5.045,0,0,1-2.5-.624Z" transform="translate(-528.88 -568.127)"/></g><g transform="translate(246.673 -104.918)"><path class="b" d="M228.448,188.5a2.546,2.546,0,0,0-2.164-.966,2.035,2.035,0,0,0-2.164,1.6,81.125,81.125,0,0,1-5.131,13.283q-4.505,8.947-9.8,13.4a9.248,9.248,0,0,1-5.877,2.4,4.52,4.52,0,0,1-3.99-2.173,13.727,13.727,0,0,1-1.964-5.272,34.644,34.644,0,0,1-.54-5.959,14.692,14.692,0,0,0,9.519-3.67,23.058,23.058,0,0,0,6.129-8.813,28.2,28.2,0,0,0,2.139-10.6q0-11.007-9.81-11.005a14.987,14.987,0,0,0-9.463,3.193,26.6,26.6,0,0,0-6.9,8.237,43.033,43.033,0,0,0-3.023,6.869c-.014.04-.042.071-.057.119-.031.11-.068.218-.1.325q-.2.606-.39,1.221a156.662,156.662,0,0,1-7.541,19.315q-4.565,9.757-7.07,9.751-1.259,0-1.257-5.473t.288-12.141q.343-7.7.342-15.052a29.04,29.04,0,0,0-.8-7.07,10.7,10.7,0,0,0-2.707-5.1,7.2,7.2,0,0,0-5.326-1.907,10.179,10.179,0,0,0-6.16,2,19.311,19.311,0,0,0-4.846,5.27,39.147,39.147,0,0,0-3.648,7.329,24.922,24.922,0,0,0-.972-5.677,10.22,10.22,0,0,0-2.535-4.445,6.494,6.494,0,0,0-4.818-1.743q-8.214,0-14.481,15.964.458-5.353,1.2-10.548a29.449,29.449,0,0,0,.342-4.385,3.593,3.593,0,0,0-1.031-2.879,4.89,4.89,0,0,0-2.563-1.113,21.7,21.7,0,0,0-3.2-.232,15.921,15.921,0,0,0-3.444.348,4.5,4.5,0,0,0-2.509,1.421,5.846,5.846,0,0,0-1.17,3.249c-.266,2.732-.424,6.632-.483,11.672l-.656,2.181a24.062,24.062,0,0,1-6.332,10.551c-.949.87-1.9,1.709-2.845,2.5q-1.657-4.048-3.594-7.8-2.047-4.111-3.566-7.988a20.941,20.941,0,0,1-1.509-7.637q0-4.162,4.962-4.558,3.933-.347,3.936-2.8a1.761,1.761,0,0,0-.918-1.619,5.993,5.993,0,0,0-2.162-.746,14.712,14.712,0,0,0-12.342,3.682q-4.31,3.87-4.306,11.74a20.226,20.226,0,0,0,1.142,6.615,47.3,47.3,0,0,0,2.876,6.612q1.742,3.306,3.62,6.5Q90.2,208.8,91.4,211.132L89.634,212.5q-5.366,4.336-5.36,10.319a8.662,8.662,0,0,0,2.475,6.332,8.3,8.3,0,0,0,6.129,2.5,10.02,10.02,0,0,0,8.1-3.444,12.693,12.693,0,0,0,2.9-8.468,35.245,35.245,0,0,0-1.424-9.864q2.221-1.882,4.5-4.156a27.338,27.338,0,0,0,3.563-4.464q.339,14.042,2.08,20.426c.641,2.39,2.32,3.591,5.018,3.591a4.651,4.651,0,0,0,3.218-1.144c.859-.757,1.286-2.357,1.286-4.786a49.8,49.8,0,0,1,.938-7.584q.945-5.3,2.512-11.087a65.267,65.267,0,0,1,3.5-10.034q1.941-4.247,3.992-4.247,1.026,0,1.537,2.506a29.767,29.767,0,0,1,.514,5.934l-.057,15.73q0,10.151,5.185,10.149a3.823,3.823,0,0,0,3.422-2.111,16.509,16.509,0,0,0,1.879-5.015q.627-2.912,1.029-5.53.852-5.353,2.139-10.833a57.989,57.989,0,0,1,2.9-9.293q1.632-3.819,3.509-3.82c.681,0,1.045,1.026,1.079,3.08l.059,2.625q0,3.247-.229,6.383-.225,3.933-.229,8.324,0,11.4,2.681,17.222t9.293,5.809q5.815,0,10.717-8.155a76.413,76.413,0,0,0,4.7-9.627,21.965,21.965,0,0,0,3.733,9.83q4.158,5.679,13.057,5.674,9.46,0,17.216-9.98a63.819,63.819,0,0,0,9.748-18.866,58.326,58.326,0,0,0,1.938-6.5,2.376,2.376,0,0,0-.458-1.427m-28.962-1.6q2.907-9.286,7.072-9.293,2.967,0,2.967,5.075a20.781,20.781,0,0,1-1.427,7.3,20.08,20.08,0,0,1-4.36,7.016,10.36,10.36,0,0,1-6.7,3.249,58.785,58.785,0,0,1,2.447-13.342M93.166,226.865a2.016,2.016,0,0,1-1.766-1.226,5.324,5.324,0,0,1-.684-2.65,8.75,8.75,0,0,1,3.249-6.668,18.014,18.014,0,0,1,1.6,7.126c0,2.28-.8,3.419-2.4,3.419" transform="translate(54.421 27.003)"/><path class="a" d="M159.475,156.87a3.107,3.107,0,0,0-2.382-.952H54.6a3.256,3.256,0,0,0-3.269,3.269v21.579a3.256,3.256,0,0,0,3.269,3.269H89.232a3.1,3.1,0,0,1,2.382.952A3.285,3.285,0,0,1,92.5,187.3v68.084a3.247,3.247,0,0,0,3.266,3.269h20.426a3.089,3.089,0,0,0,2.382-.952,3.28,3.28,0,0,0,.887-2.317V187.3a3.251,3.251,0,0,1,3.266-3.269h34.364a3.107,3.107,0,0,0,2.382-.952,3.278,3.278,0,0,0,.884-2.317V159.187a3.287,3.287,0,0,0-.884-2.317M66.424,177.745a7.464,7.464,0,1,1,7.465-7.465,7.466,7.466,0,0,1-7.465,7.465" transform="translate(0)"/><path class="a" d="M74.906,231.727H54.562a3.031,3.031,0,0,1-2.357-.949,3.257,3.257,0,0,1-.879-2.3v-54.46a3.267,3.267,0,0,1,.879-2.3,3.051,3.051,0,0,1,2.357-.949H74.906a3.232,3.232,0,0,1,3.235,3.249v54.46a3.139,3.139,0,0,1-.944,2.3,3.106,3.106,0,0,1-2.292.949" transform="translate(0 27.111)"/></g></g></svg>