<svg xmlns="http://www.w3.org/2000/svg" width="138.026" height="146.176" viewBox="0 0 138.026 146.176"><defs><style>.a{fill:#eef4f9;}.b{fill:#004b97;}.c{fill:#242424;}.d{fill:#ea9d0b;}</style></defs><g transform="translate(-560.729 -424.682)"><path class="a" d="M574.257,502.453s.3,14.756,12.834,19.154c5.324,1.87,0,46.778,0,46.778h51.3v-18c11.249.681,32.209,9.74,39.024,6.335S681.5,537.97,681.5,537.97l-4.429-6.818,4.091-2.386v-8.52h14.654l-13.633-24.541s2.246-25.361,0-33.405c-1.848-6.614-4.448-14.248-17.06-22.428a37.8,37.8,0,0,0-25.682-5.6s-27.368.3-50.529,15.326C567.367,463.574,574.257,502.453,574.257,502.453Z" transform="translate(1.762 1.299)"/><path class="b" d="M634.133,455.049h-2.152a1.92,1.92,0,0,1-1.811-1.262c-.237-.625-.5-1.237-.769-1.845a1.922,1.922,0,0,1,.389-2.181l1.536-1.536a5.882,5.882,0,0,0-.014-8.293l-5.526-5.527a5.884,5.884,0,0,0-8.294,0l-1.533,1.53a1.94,1.94,0,0,1-2.184.391c-.6-.274-1.218-.531-1.848-.779a1.926,1.926,0,0,1-1.268-1.817v-2.152a5.869,5.869,0,0,0-5.868-5.868h-7.825a5.867,5.867,0,0,0-5.866,5.868v2.152a1.927,1.927,0,0,1-1.266,1.811c-.626.238-1.238.494-1.843.773a1.935,1.935,0,0,1-2.184-.395l-1.535-1.533a5.885,5.885,0,0,0-8.292,0l-5.53,5.545a5.889,5.889,0,0,0,0,8.3l1.536,1.534a1.924,1.924,0,0,1,.389,2.181c-.275.608-.531,1.22-.774,1.848a1.914,1.914,0,0,1-1.825,1.26h-2.15a5.87,5.87,0,0,0-5.869,5.87v7.823a5.868,5.868,0,0,0,5.869,5.868h2.15a1.925,1.925,0,0,1,1.812,1.264c.239.625.5,1.238.77,1.848a1.925,1.925,0,0,1-.391,2.18l-1.534,1.537a5.881,5.881,0,0,0,0,8.292l5.528,5.528a5.888,5.888,0,0,0,8.294,0l1.533-1.53a1.933,1.933,0,0,1,2.184-.393c.606.273,1.22.532,1.845.782a1.927,1.927,0,0,1,1.282,1.815v2.15a5.869,5.869,0,0,0,5.866,5.872h7.825a5.872,5.872,0,0,0,5.868-5.872v-2.15a1.921,1.921,0,0,1,1.263-1.81c.629-.241,1.238-.5,1.845-.77a1.931,1.931,0,0,1,2.183.389l1.536,1.531a5.882,5.882,0,0,0,8.291-.007l5.526-5.528a5.877,5.877,0,0,0,0-8.294l-1.53-1.535a1.926,1.926,0,0,1-.391-2.18c.277-.607.531-1.221.783-1.85a1.927,1.927,0,0,1,1.816-1.269h2.152A5.869,5.869,0,0,0,640,468.743V460.92A5.871,5.871,0,0,0,634.133,455.049Z" transform="translate(0.145 0.145)"/><path class="c" d="M604.937,505.273h-7.825a7.051,7.051,0,0,1-7.04-7.045v-2.15a.745.745,0,0,0-.5-.705c-.687-.275-1.315-.541-1.935-.82a.749.749,0,0,0-.87.146l-1.535,1.536a7.225,7.225,0,0,1-9.951,0l-5.53-5.528a7.08,7.08,0,0,1,0-9.951l1.535-1.537a.751.751,0,0,0,.156-.855c-.289-.643-.555-1.277-.8-1.925a.762.762,0,0,0-.714-.509h-2.15a7.051,7.051,0,0,1-7.044-7.041v-7.823a7.053,7.053,0,0,1,7.044-7.044h2.15a.758.758,0,0,0,.725-.491c.255-.666.519-1.3.806-1.93a.762.762,0,0,0-.148-.863l-1.538-1.536a7.077,7.077,0,0,1,0-9.952l5.528-5.547a7.232,7.232,0,0,1,9.951,0l1.538,1.535a.756.756,0,0,0,.858.16c.636-.289,1.27-.555,1.918-.8a.759.759,0,0,0,.511-.714v-2.154a7.049,7.049,0,0,1,7.04-7.041h7.825a7.051,7.051,0,0,1,7.042,7.041v2.152a.749.749,0,0,0,.494.712c.681.27,1.309.534,1.933.816a.754.754,0,0,0,.865-.152l1.536-1.533a7.231,7.231,0,0,1,9.951,0l5.528,5.529a7.077,7.077,0,0,1,.017,9.949l-1.538,1.539a.758.758,0,0,0-.156.859c.289.637.553,1.271.8,1.92a.762.762,0,0,0,.711.507h2.157a7.052,7.052,0,0,1,7.042,7.044v7.823a7.05,7.05,0,0,1-7.042,7.041h-2.152a.754.754,0,0,0-.71.5c-.273.681-.538,1.309-.822,1.935a.756.756,0,0,0,.147.859l1.541,1.539a7.076,7.076,0,0,1,0,9.951l-5.528,5.53a7.228,7.228,0,0,1-9.949.011l-1.538-1.536a.764.764,0,0,0-.86-.155c-.638.289-1.27.555-1.916.8a.761.761,0,0,0-.511.712v2.152A7.053,7.053,0,0,1,604.937,505.273ZM587.3,492.127a3.093,3.093,0,0,1,1.305.289c.582.264,1.178.514,1.792.759a3.087,3.087,0,0,1,2.018,2.9v2.15a4.7,4.7,0,0,0,4.693,4.7h7.825a4.7,4.7,0,0,0,4.7-4.7v-2.15a3.106,3.106,0,0,1,2.032-2.912c.59-.227,1.18-.472,1.766-.736a3.152,3.152,0,0,1,3.5.629l1.535,1.53a4.824,4.824,0,0,0,6.633-.009l5.526-5.526a4.723,4.723,0,0,0,0-6.64l-1.531-1.53a3.106,3.106,0,0,1-.623-3.507c.265-.577.514-1.175.757-1.787a3.1,3.1,0,0,1,2.9-2.008h2.157a4.7,4.7,0,0,0,4.7-4.694v-7.823a4.7,4.7,0,0,0-4.7-4.7h-2.152a3.112,3.112,0,0,1-2.916-2.033c-.221-.59-.469-1.179-.735-1.765a3.106,3.106,0,0,1,.634-3.5l1.532-1.533a4.723,4.723,0,0,0-.015-6.635L625.1,435.38a4.823,4.823,0,0,0-6.637,0l-1.531,1.528a3.162,3.162,0,0,1-3.5.626c-.583-.265-1.178-.512-1.787-.754a3.093,3.093,0,0,1-2.011-2.915v-2.146a4.7,4.7,0,0,0-4.7-4.695h-7.825a4.7,4.7,0,0,0-4.693,4.695v2.152a3.109,3.109,0,0,1-2.04,2.915c-.582.223-1.171.468-1.755.735a3.139,3.139,0,0,1-3.5-.636l-1.531-1.527a4.824,4.824,0,0,0-6.635,0l-5.526,5.542a4.723,4.723,0,0,0,0,6.64l1.531,1.531a3.1,3.1,0,0,1,.623,3.5q-.392.866-.742,1.775a3.1,3.1,0,0,1-2.9,2.014h-2.173a4.7,4.7,0,0,0-4.7,4.7v7.823a4.7,4.7,0,0,0,4.7,4.694h2.15a3.112,3.112,0,0,1,2.915,2.036c.225.589.472,1.18.738,1.764a3.11,3.11,0,0,1-.635,3.5l-1.529,1.535a4.721,4.721,0,0,0,0,6.633l5.526,5.528a4.828,4.828,0,0,0,6.637,0l1.53-1.529A3.083,3.083,0,0,1,587.3,492.127Z"/><path class="d" d="M615.788,461.384c-.017-.468-.051-.938-.11-1.4-.059-.5-.135-1-.238-1.486-.068-.318-.161-.634-.248-.953-.107-.4-.228-.8-.366-1.189-.1-.273-.2-.539-.3-.809a18.494,18.494,0,0,0-.862-1.834c-.027-.043-.041-.091-.068-.137a17.291,17.291,0,0,0-1.76-2.563c-.056-.071-.122-.137-.18-.205-.269-.321-.547-.629-.838-.925-.154-.156-.314-.306-.475-.457-.2-.186-.393-.364-.587-.536-.238-.2-.479-.405-.726-.6l-.322-.239a17.5,17.5,0,0,0-10.487-3.49c-.2,0-.393.029-.588.038-.417.013-.833.034-1.255.079-.22.022-.445.048-.664.08a18.166,18.166,0,0,0-1.9.354,17.615,17.615,0,0,0,.013,34.113.4.4,0,0,1,.1.018,18.519,18.519,0,0,0,2.049.389c.454.057.913.07,1.368.09.306.016.588.062.905.062a17.072,17.072,0,0,0,1.729-.1c.062,0,.123-.018.2-.023.474-.055.957-.126,1.445-.224.2-.038.381-.088.568-.129.345-.08.688-.166,1.037-.266.275-.087.54-.178.811-.275s.544-.193.819-.3.514-.227.766-.343c.328-.152.653-.3.977-.477h.013a23.02,23.02,0,0,0,5.013-3.619,6.143,6.143,0,0,0,1.046-1.283,20.887,20.887,0,0,0,2.948-8.04c.055-.379.1-.757.132-1.139.029-.358.046-.709.056-1.061,0-.11.014-.218.014-.325C615.828,461.9,615.8,461.65,615.788,461.384Z" transform="translate(2.807 2.807)"/><path class="c" d="M598.4,481.1c-.231,0-.446-.018-.66-.039l-.559-.034c-.4-.018-.8-.038-1.205-.088a20.833,20.833,0,0,1-2.182-.414,18.728,18.728,0,0,1,1.916-36.788c.22-.032.463-.059.7-.083.443-.047.891-.072,1.336-.084.33-.027.477-.039.624-.039a18.816,18.816,0,0,1,11.192,3.724l.315.237c.286.221.541.432.792.65.219.192.422.378.626.571s.366.343.51.5c.306.309.6.641.892.985l-.714.962.9-.749a18.344,18.344,0,0,1,1.878,2.737,20.71,20.71,0,0,1,1,2.106c.114.3.22.577.316.862.146.418.28.842.394,1.27s.2.719.262,1.018c.108.515.192,1.05.256,1.581.062.5.1,1,.12,1.5l.014.253c.014.2.025.39.023.6l-.009.243c-.014.476-.034.847-.064,1.223-.033.414-.083.821-.143,1.223a21.865,21.865,0,0,1-3.112,8.492,7.254,7.254,0,0,1-1.243,1.519,24.1,24.1,0,0,1-5.261,3.8l-.275.14c-.257.13-.517.249-.775.369-.393.185-.6.284-.835.373-.288.113-.579.218-.857.314s-.554.2-.846.284c-.395.114-.758.207-1.12.289-.325.079-.472.114-.624.143-.5.1-1.018.176-1.526.234l-.325.032A16.861,16.861,0,0,1,598.4,481.1Zm-4.272-2.907.227.051a16.761,16.761,0,0,0,1.923.366c.332.041.67.055,1,.068l.671.044a11.355,11.355,0,0,0,2.06-.063c.619-.071,1.068-.137,1.527-.229l.33-.073c.525-.123.848-.2,1.18-.3.234-.073.484-.161.738-.252s.532-.188.8-.291c.176-.066.328-.14.484-.212.515-.243.821-.381,1.12-.547l.274-.139a21.855,21.855,0,0,0,4.5-3.3,4.987,4.987,0,0,0,.857-1.045,19.56,19.56,0,0,0,2.783-7.595c.051-.353.1-.7.127-1.059.023-.334.041-.664.051-1l1.187-.291-1.174-.009c0-.159-.008-.3-.017-.445l-.017-.3c-.019-.438-.05-.875-.1-1.316-.056-.458-.123-.923-.223-1.375-.055-.256-.126-.509-.2-.758-.137-.509-.252-.878-.38-1.245-.091-.261-.188-.518-.284-.777a16.185,16.185,0,0,0-.8-1.689,15.945,15.945,0,0,0-1.7-2.516l.724-.953-.9.755c-.25-.292-.5-.581-.774-.857-.129-.13-.257-.249-.382-.369l-.624-.571c-.211-.181-.437-.369-.671-.552l-.293-.218a16.444,16.444,0,0,0-9.791-3.26l-.542.037c-.4.013-.787.032-1.178.073-.211.021-.417.046-.619.074a16.7,16.7,0,0,0-1.789.334,16.441,16.441,0,0,0-.113,31.8Z" transform="translate(2.662 2.662)"/><path class="c" d="M666.51,558.085c-6.367,0-16.555-2.307-26.489-4.561-7.636-1.729-14.851-3.367-19.033-3.619a1.173,1.173,0,0,1-1.1-1.242,1.193,1.193,0,0,1,1.243-1.1c4.374.265,11.676,1.919,19.409,3.67,11.542,2.617,25.911,5.873,29.758,3.949,4.857-2.43,4.2-13.06,3.5-17.26l-4.3-6.614a1.176,1.176,0,0,1,.391-1.654l3.509-2.045v-7.847a1.172,1.172,0,0,1,1.174-1.173h12.661l-12.665-22.8a1.164,1.164,0,0,1-.143-.673c.023-.252,2.2-25.238.039-32.983-1.982-7.091-4.738-14.088-16.568-21.761-12.027-7.8-25.64-4.051-25.778-4.014a1.173,1.173,0,1,1-.641-2.257c.595-.17,14.787-4.073,27.694,4.3,12.508,8.112,15.53,15.859,17.553,23.1,2.157,7.724.346,30.211.071,33.462l13.458,24.229a1.174,1.174,0,0,1-1.026,1.744H675.747v7.348a1.171,1.171,0,0,1-.583,1.013l-3.026,1.764,3.76,5.785a1.168,1.168,0,0,1,.169.436c.12.66,2.8,16.241-4.719,20A11.281,11.281,0,0,1,666.51,558.085Z" transform="translate(8.354 1.181)"/><path class="c" d="M630.47,555.289a1.172,1.172,0,0,1-1.173-1.174v-18a1.173,1.173,0,1,1,2.346,0v18A1.174,1.174,0,0,1,630.47,555.289Z" transform="translate(9.682 15.569)"/><path class="c" d="M586.838,559.147a.675.675,0,0,1-.143-.01,1.173,1.173,0,0,1-1.023-1.307c2.793-22.8,3.147-42.994.773-44.085-13.28-4.662-11.355-19.461-11.337-19.613a1.186,1.186,0,0,1,1.325-1,1.171,1.171,0,0,1,1,1.32c-.074.532-1.659,13.054,9.8,17.076,5.608,1.969,2.411,33.234.775,46.583A1.173,1.173,0,0,1,586.838,559.147Z" transform="translate(2.015 9.665)"/></g></svg>