<svg xmlns="http://www.w3.org/2000/svg" width="58.334" height="47.53" viewBox="0 0 58.334 47.53"><defs><style>.a{fill:#1d5ba6;}</style></defs><g transform="translate(-751.626 -130.665)"><path class="a" d="M808.16,134.147H753.421a1.8,1.8,0,0,0-1.795,1.8v8.319a1.8,1.8,0,0,0,1.795,1.8H808.16a1.8,1.8,0,0,0,1.8-1.8v-8.319a1.8,1.8,0,0,0-1.8-1.8" transform="translate(0 14.321)"/><path class="a" d="M808.16,130.665H753.421a1.789,1.789,0,0,0-1.795,1.79v8.334a1.793,1.793,0,0,0,1.795,1.789H808.16a1.793,1.793,0,0,0,1.795-1.789v-8.334a1.789,1.789,0,0,0-1.795-1.79m-2.643,8.554a3.39,3.39,0,0,1-4.76-4.76,1.822,1.822,0,0,1,.44-.445,3.392,3.392,0,0,1,4.76,4.765,1.64,1.64,0,0,1-.44.44" transform="translate(0 0)"/><path class="a" d="M753.421,149.544H808.16a1.794,1.794,0,0,0,1.795-1.795v-8.324a1.794,1.794,0,0,0-1.795-1.795H753.421a1.794,1.794,0,0,0-1.795,1.795v8.324a1.794,1.794,0,0,0,1.795,1.795m2.644-8.559a3.391,3.391,0,0,1,4.76,4.76,1.748,1.748,0,0,1-.445.445,3.391,3.391,0,0,1-4.76-4.76,1.675,1.675,0,0,1,.445-.445" transform="translate(0 28.651)"/></g></svg>