<svg xmlns="http://www.w3.org/2000/svg" width="152.376" height="145.302" viewBox="0 0 152.376 145.302"><defs><style>.a{fill:#eef4f9;}.b{fill:#004b97;}.c{fill:#ea9d0b;}.d{fill:#242424;}</style></defs><path class="a" d="M260.261,551.144H245.17l-.005-17.077H135.1l-.275,17.077h-17.15v-39.9H260.261Z" transform="translate(-113.81 -405.843)"/><path class="a" d="M259.89,522.936H120.235a6.361,6.361,0,1,1,0-12.722H259.89a6.361,6.361,0,1,1,0,12.722Z" transform="translate(-113.874 -405.86)"/><path class="a" d="M247.126,426.929c.2,3.809.293,16.547.293,20.04,0,15.686-11.583,28.4-25.877,28.4s-26.673-12.713-26.673-28.4c0-2.114-.6-14.284-.208-16.263" transform="translate(-112.521 -407.257)"/><path class="a" d="M232.364,471.66v9.928l-11.308,4.182h-.122l-11.308-4.182V471.66" transform="translate(-112.267 -406.507)"/><g transform="translate(3.867 54.524)"><rect class="a" width="61.333" height="50.876" rx="3" transform="translate(0 0)"/></g><path class="a" d="M178.967,498.731h28.569v12.721H172.684" transform="translate(-112.887 -406.053)"/><path class="b" d="M255.543,511.739a14.635,14.635,0,0,0,.556-4.007V496.4a14.636,14.636,0,0,0-14.636-14.636h-8.617v.349L221.537,486.3h-.123l-11.309-4.182v-.349H198.336A14.636,14.636,0,0,0,183.7,496.4v2.611h23.7v12.721h48.7" transform="translate(-112.702 -406.337)"/><path class="c" d="M223.205,495.437a2.7,2.7,0,1,1-2.7-2.7A2.7,2.7,0,0,1,223.205,495.437Z" transform="translate(-112.13 -406.153)"/><path class="c" d="M223.205,504.436a2.7,2.7,0,1,1-2.7-2.7A2.7,2.7,0,0,1,223.205,504.436Z" transform="translate(-112.13 -406.002)"/><path class="c" d="M194.678,441.523s-.2-12.771.7-16.9c.97-4.455,4.008-10.284,11.85-13.245s16.9-2.963,22.3-2.613l5.4.349v10.8s5.233-1.4,9.235.523a4.773,4.773,0,0,1,2.961,4.624v13.322a9.541,9.541,0,0,0-8.887-3.137c-5.574,1.046-6.436,6.272-17.331,4.706s-12.64-5.924-18.215-4.879S194.678,441.523,194.678,441.523Z" transform="translate(-112.519 -407.565)"/><path class="d" d="M172.8,513.145H124.014a7.327,7.327,0,0,1-7.318-7.319V467.494a7.327,7.327,0,0,1,7.318-7.319H172.8a7.327,7.327,0,0,1,7.318,7.319v38.333A7.327,7.327,0,0,1,172.8,513.145Zm-48.788-50.879a5.234,5.234,0,0,0-5.227,5.228v38.333a5.233,5.233,0,0,0,5.227,5.227H172.8a5.233,5.233,0,0,0,5.227-5.227V467.494a5.234,5.234,0,0,0-5.227-5.228Z" transform="translate(-113.827 -406.699)"/><path class="d" d="M172.8,513.145H124.014a7.327,7.327,0,0,1-7.318-7.319V467.494a7.327,7.327,0,0,1,7.318-7.319H172.8a7.327,7.327,0,0,1,7.318,7.319v38.333A7.327,7.327,0,0,1,172.8,513.145Zm-48.788-50.879a5.234,5.234,0,0,0-5.227,5.228v38.333a5.233,5.233,0,0,0,5.227,5.227H172.8a5.233,5.233,0,0,0,5.227-5.227V467.494a5.234,5.234,0,0,0-5.227-5.228Z" transform="translate(-113.827 -406.699)"/><path class="c" d="M162.761,487.617a13.46,13.46,0,1,1-13.459-13.46A13.459,13.459,0,0,1,162.761,487.617Z" transform="translate(-113.505 -406.465)"/><path class="d" d="M207.6,512.516H172.748a1.046,1.046,0,0,1,0-2.092h33.806v-10.63H179.032a1.045,1.045,0,1,1,0-2.09H207.6a1.045,1.045,0,0,1,1.045,1.045v12.721A1.046,1.046,0,0,1,207.6,512.516Z" transform="translate(-112.904 -406.07)"/><path class="d" d="M195.028,442.586a1.024,1.024,0,0,1-.214-.023,1.045,1.045,0,0,1-.832-1.005c-.008-.526-.193-12.941.72-17.14.823-3.775,3.539-10.615,12.5-14a50.947,50.947,0,0,1,17.9-2.837c1.592,0,3.22.053,4.837.157l5.4.349a1.046,1.046,0,0,1,.978,1.043v9.526a19.532,19.532,0,0,1,3.126-.259,12.678,12.678,0,0,1,5.517,1.118,5.794,5.794,0,0,1,3.554,5.567V438.4a1.047,1.047,0,0,1-1.863.653,8.295,8.295,0,0,0-7.877-2.762,11.787,11.787,0,0,0-4.41,2.036A15.33,15.33,0,0,1,225,441.31a27.693,27.693,0,0,1-3.89-.3A36.673,36.673,0,0,1,209.8,437.54c-2.485-1.15-4.156-1.865-6.56-1.418-4.952.929-7.233,5.8-7.256,5.852A1.046,1.046,0,0,1,195.028,442.586Zm9.661-8.7a13.836,13.836,0,0,1,5.984,1.753,34.782,34.782,0,0,0,10.733,3.3,25.329,25.329,0,0,0,3.592.281,13.21,13.21,0,0,0,8.24-2.645,13.792,13.792,0,0,1,5.157-2.332,10.72,10.72,0,0,1,1.966-.185,10.354,10.354,0,0,1,6.067,2V425.083a3.753,3.753,0,0,0-2.368-3.682,10.608,10.608,0,0,0-4.611-.912,17.108,17.108,0,0,0-3.9.457,1.047,1.047,0,0,1-1.316-1.01v-9.824l-4.422-.286c-1.573-.1-3.155-.152-4.7-.152a48.892,48.892,0,0,0-17.165,2.7c-8.038,3.035-10.466,9.128-11.2,12.489-.581,2.665-.685,9.219-.691,13.269a11.879,11.879,0,0,1,6.8-4.064A9.765,9.765,0,0,1,204.689,433.889Z" transform="translate(-112.53 -407.582)"/><path class="d" d="M221.6,476.888c-15.026,0-27.719-13.484-27.719-29.446,0-.636-.03-1.265-.058-1.89a18.213,18.213,0,0,1,.164-4.471,1.045,1.045,0,1,1,2.05.413,16.422,16.422,0,0,0-.125,3.962c.03.657.06,1.318.06,1.986,0,14.828,11.736,27.355,25.629,27.355,13.691,0,24.831-12.272,24.831-27.355a1.046,1.046,0,1,1,2.091,0C248.523,463.679,236.445,476.888,221.6,476.888Z" transform="translate(-112.533 -407.034)"/><path class="d" d="M221.119,487.52a1.859,1.859,0,0,1-.486-.065l-11.308-4.182a1.044,1.044,0,0,1-.683-.98v-9.93a1.046,1.046,0,0,1,2.092,0v9.2l10.323,3.816,10.324-3.816V472.6a1.045,1.045,0,1,1,2.091,0v9.7a1.044,1.044,0,0,1-.682.98l-11.309,4.182A1.053,1.053,0,0,1,221.119,487.52Z" transform="translate(-112.284 -406.512)"/><path class="d" d="M183.717,500.078a1.044,1.044,0,0,1-1.045-1.045v-2.611a15.7,15.7,0,0,1,15.682-15.683h11.769a1.046,1.046,0,1,1,0,2.091H198.354a13.607,13.607,0,0,0-13.591,13.592v2.611A1.043,1.043,0,0,1,183.717,500.078Z" transform="translate(-112.72 -406.355)"/><path class="d" d="M254.75,512.8a1.033,1.033,0,0,1-.286-.038,1.045,1.045,0,0,1-.721-1.291,13.649,13.649,0,0,0,.516-3.723V496.422a13.606,13.606,0,0,0-13.59-13.592h-8.617a1.046,1.046,0,0,1,0-2.091h8.617a15.7,15.7,0,0,1,15.682,15.683v11.327a15.716,15.716,0,0,1-.595,4.291A1.045,1.045,0,0,1,254.75,512.8Z" transform="translate(-111.909 -406.355)"/><path class="d" d="M220.52,499.2a3.747,3.747,0,1,1,3.748-3.747A3.751,3.751,0,0,1,220.52,499.2Zm0-5.4a1.656,1.656,0,1,0,1.656,1.656A1.658,1.658,0,0,0,220.52,493.8Z" transform="translate(-112.147 -406.17)"/><path class="d" d="M220.52,508.2a3.747,3.747,0,1,1,3.748-3.746A3.75,3.75,0,0,1,220.52,508.2Zm0-5.4a1.656,1.656,0,1,0,1.656,1.657A1.658,1.658,0,0,0,220.52,502.8Z" transform="translate(-112.147 -406.019)"/><path class="d" d="M259.89,522.936H120.235a6.361,6.361,0,1,1,0-12.722H259.89a6.361,6.361,0,1,1,0,12.722Zm-139.655-10.63a4.269,4.269,0,1,0,0,8.539H259.89a4.269,4.269,0,1,0,0-8.539Z" transform="translate(-113.874 -405.86)"/><path class="d" d="M260.244,550.985a1.045,1.045,0,0,1-1.045-1.045V522.76H120.764v27.18a1.045,1.045,0,0,1-2.091,0V521.714a1.045,1.045,0,0,1,1.045-1.045H260.244a1.044,1.044,0,0,1,1.045,1.045V549.94A1.044,1.044,0,0,1,260.244,550.985Z" transform="translate(-113.793 -405.684)"/><path class="d" d="M244.905,550.787a1.045,1.045,0,0,1-1.045-1.045V534.582H135.605v15.159a1.045,1.045,0,0,1-2.09,0v-16.2a1.045,1.045,0,0,1,1.045-1.046H244.905a1.044,1.044,0,0,1,1.045,1.046v16.2A1.044,1.044,0,0,1,244.905,550.787Z" transform="translate(-113.544 -405.486)"/><path class="d" d="M149.32,502.14a14.506,14.506,0,1,1,14.505-14.506A14.523,14.523,0,0,1,149.32,502.14Zm0-26.92a12.415,12.415,0,1,0,12.414,12.415A12.429,12.429,0,0,0,149.32,475.219Z" transform="translate(-113.523 -406.482)"/><g transform="translate(34.5 73.366)"><path class="d" d="M150.4,481.054a1.3,1.3,0,0,1-2.591,0,1.3,1.3,0,1,1,2.591,0Zm-.355,14.252h-1.88v-9.781h1.88Z" transform="translate(-147.805 -479.737)"/></g></svg>